<svg width="34" height="30" viewBox="0 0 34 30" fill="none" xmlns="http://www.w3.org/2000/svg">
<path d="M10.0937 17.4576C10.0937 21.4081 13.1857 24.6105 16.9999 24.6105C20.8142 24.6105 23.9062 21.4081 23.9062 17.4576C23.9062 13.5072 20.8142 10.3047 17 10.3047C13.1858 10.3047 10.0937 13.5072 10.0937 17.4576ZM31.875 5.35274H24.4375C23.9062 3.15181 23.375 0.950943 21.25 0.950943H12.75C10.625 0.950943 10.0937 3.15181 9.56249 5.35274H2.12498C0.956249 5.35274 0 6.34315 0 7.55361V27.3616C0 28.5721 0.956249 29.5625 2.12498 29.5625H31.875C33.0437 29.5625 34 28.5721 34 27.3616V7.55361C33.9999 6.34315 33.0437 5.35274 31.875 5.35274ZM17 27.2241C11.7921 27.2241 7.5703 22.8515 7.5703 17.4576C7.5703 12.0638 11.7921 7.69115 17 7.69115C22.2079 7.69115 26.4297 12.0637 26.4297 17.4576C26.4296 22.8515 22.208 27.2241 17 27.2241ZM31.875 11.9554H27.625V9.75455H31.875V11.9554Z" fill="white"/>
</svg>
