<svg width="38" height="38" viewBox="0 0 38 38" fill="none" xmlns="http://www.w3.org/2000/svg">
<path d="M25.9667 31.6667L22.6167 25.8667C24.25 24.6667 25.3833 22.8 25.6167 20.6667H32.3333C32.05 25.2667 29.5833 29.2667 25.9667 31.6667ZM20.6667 10.7167V4C27.8333 4.43333 33.5667 10.1667 34 17.3333H27.2833C26.9 13.85 24.15 11.1 20.6667 10.7167ZM10.6667 19.8333C10.6667 20.9 10.8833 21.9167 11.3 22.8333L5.5 26.1833C4.53333 24.2667 4 22.1167 4 19.8333C4 12.2833 9.9 6.11667 17.3333 5.66667V12.3833C13.5833 12.8 10.6667 15.9667 10.6667 19.8333ZM18.1667 34C13.2167 34 8.86667 31.5 6.33333 27.6333L12.1333 24.2833C13.5 26.1333 15.6667 27.3333 18.1667 27.3333C19.2333 27.3333 20.25 27.1167 21.1667 26.7L24.5167 32.5C22.6 33.4667 20.45 34 18.1667 34Z" fill="white"/>
</svg>
