<svg width="33" height="29" viewBox="0 0 33 29" fill="none" xmlns="http://www.w3.org/2000/svg">
<path fill-rule="evenodd" clip-rule="evenodd" d="M7.33333 29C3.28324 29 0 26.1148 0 22.5555V6.44444C0 2.88527 3.28324 0 7.33333 0H25.6667C29.7167 0 33 2.88527 33 6.44444V22.5555C33 26.1148 29.7167 29 25.6667 29H7.33333ZM8.9236 14.7137C8.04538 15.4855 8.04538 16.7368 8.9236 17.5085C9.80183 18.2803 11.2257 18.2803 12.1039 17.5085L17.2561 12.9809L22.4082 17.5085C23.2864 18.2803 24.7103 18.2803 25.5885 17.5085C26.4668 16.7368 26.4668 15.4855 25.5885 14.7137L18.8462 8.78865C17.968 8.01687 16.5441 8.01687 15.6659 8.78865L8.9236 14.7137Z" fill="white"/>
</svg>
