<svg width="37" height="32" viewBox="0 0 37 32" fill="none" xmlns="http://www.w3.org/2000/svg">
<path d="M11.1742 18.356L16.4402 13.5621C16.7016 13.314 17.0214 13.1155 17.3787 12.9796C17.7357 12.8438 18.1225 12.7735 18.5135 12.7735C18.9045 12.7735 19.2913 12.8438 19.6484 12.9796C20.0056 13.1155 20.3254 13.314 20.5869 13.5621L25.8529 18.356" stroke="white" stroke-width="3.6" stroke-linecap="round" stroke-linejoin="round"/>
<path d="M2 8.26667V23.9333C2 27.3944 5.28593 30.2 9.33934 30.2H27.6877C31.741 30.2 35.027 27.3944 35.027 23.9333V8.26667C35.027 4.80568 31.741 2 27.6877 2H9.33934C5.28593 2 2 4.80568 2 8.26667Z" stroke="white" stroke-width="3.6" stroke-linecap="round" stroke-linejoin="round"/>
</svg>
