<svg width="54" height="48" viewBox="0 0 54 48" fill="none" xmlns="http://www.w3.org/2000/svg">
<path fill-rule="evenodd" clip-rule="evenodd" d="M14.5 0.875C10.4626 0.875 6.81163 1.88407 4.16165 4.34475C1.48655 6.8288 0.125 10.5176 0.125 15.25V32.75C0.125 37.4825 1.48655 41.1713 4.16165 43.6553C6.81163 46.116 10.4626 47.125 14.5 47.125H39.5C43.5375 47.125 47.1885 46.116 49.8382 43.6553C52.5135 41.1713 53.875 37.4825 53.875 32.75V15.25C53.875 10.5176 52.5135 6.8288 49.8382 4.34475C47.1885 1.88407 43.5375 0.875 39.5 0.875H14.5ZM45.0713 14.9057C45.8905 14.2726 46.0415 13.095 45.4083 12.2756C44.7753 11.4562 43.5978 11.3053 42.7783 11.9384L28.9105 22.654C27.7853 23.5238 26.2145 23.5238 25.089 22.654L11.2215 11.9384C10.4021 11.3053 9.22455 11.4562 8.59137 12.2756C7.9582 13.095 8.10918 14.2726 8.9286 14.9057L22.7962 25.6215C25.2722 27.5345 28.7275 27.5345 31.2035 25.6215L45.0713 14.9057Z" fill="black"/>
</svg>
