<svg width="60" height="60" viewBox="0 0 60 60" fill="none" xmlns="http://www.w3.org/2000/svg">
<path fill-rule="evenodd" clip-rule="evenodd" d="M17.375 7C13.3376 7 9.68663 8.00907 7.03665 10.4697C4.36155 12.9538 3 16.6426 3 21.375V38.875C3 43.6075 4.36155 47.2963 7.03665 49.7803C9.68663 52.241 13.3376 53.25 17.375 53.25H42.375C46.4125 53.25 50.0635 52.241 52.7132 49.7803C55.3885 47.2963 56.75 43.6075 56.75 38.875V21.375C56.75 16.6426 55.3885 12.9538 52.7132 10.4697C50.0635 8.00907 46.4125 7 42.375 7H17.375ZM47.9463 21.0308C48.7655 20.3976 48.9165 19.22 48.2832 18.4007C47.6502 17.5812 46.4728 17.4303 45.6533 18.0634L31.7855 28.779C30.6602 29.6488 29.0895 29.6488 27.964 28.779L14.0965 18.0634C13.2771 17.4303 12.0996 17.5812 11.4664 18.4007C10.8332 19.22 10.9842 20.3976 11.8036 21.0308L25.6712 31.7465C28.1472 33.6595 31.6025 33.6595 34.0785 31.7465L47.9463 21.0308Z" fill="black"/>
</svg>
