<svg width="60" height="60" viewBox="0 0 60 60" fill="none" xmlns="http://www.w3.org/2000/svg">
<g clip-path="url(#clip0_150_70)">
<path d="M42.75 59.5L31 52.5L37.75 40.5L42 43L37.75 50.75L45.25 55.25L42.75 59.5ZM14.25 27.5L10 20L2.75 24.25L0.25 20L12 13L18.75 25L14.25 27.5Z" fill="black"/>
<path d="M55 15H41.25V10H50V1.25H55V15Z" fill="black"/>
<path d="M38.5 53.75L37.5 48.75C47.5 46.5 54.75 37.5 54.75 27.25C54.75 25.75 54.5 24 54.25 22.5L59.25 21.5C59.75 23.5 60 25.5 60 27.25C60 40.25 51 51.25 38.5 53.75Z" fill="black"/>
<path d="M24.5 53.25C13.25 49.75 5.5 39.5 5.5 27.5C5.5 24.25 6 21 7.25 18L12 19.75C11 22.25 10.5 24.75 10.5 27.5C10.5 37.25 16.75 45.5 25.75 48.5L24.5 53.25Z" fill="black"/>
<path d="M49 12.5C44.75 7.75 38.75 5 32.5 5C27.25 5 22.25 7 18.25 10.25L15 6.5C19.75 2.25 26 0 32.5 0C40.25 0 47.5 3.25 52.75 9L49 12.5Z" fill="black"/>
</g>
<defs>
<clipPath id="clip0_150_70">
<rect width="60" height="60" fill="white"/>
</clipPath>
</defs>
</svg>
