<svg width="60" height="42" viewBox="0 0 60 42" fill="none" xmlns="http://www.w3.org/2000/svg">
<path fill-rule="evenodd" clip-rule="evenodd" d="M17.5302 16.8C16.7952 16.0688 16.7952 14.8687 17.5302 14.1375C18.2614 13.4062 19.4501 13.4062 20.1833 14.1375L24.3814 18.3374L28.6339 14.0814C29.3727 13.3501 30.5708 13.3501 31.3095 14.0814C32.0483 14.8314 32.0483 16.0313 31.3095 16.7625L27.057 21.0188L31.2551 25.2C31.9882 25.9313 31.9882 27.1313 31.2551 27.8626C30.5219 28.5938 29.3332 28.5938 28.602 27.8626L24.4038 23.6626L20.0914 27.975C19.3507 28.7062 18.1545 28.7062 17.4157 27.975C16.6751 27.225 16.6751 26.0439 17.4157 25.2939L21.7282 20.9813L17.5302 16.8ZM7.5008 41.625H41.1476C41.6726 41.6625 42.2089 41.4937 42.6101 41.1L59.4589 22.4626C59.8545 22.0688 60.0251 21.5438 59.997 21.0376C60.0251 20.5126 59.8545 19.9875 59.4589 19.5938L42.6101 0.956387C42.2426 0.600137 41.7626 0.412564 41.2826 0.412564V0.375027H7.5008C3.35518 0.375027 -0.00675201 3.73128 -0.00675201 7.87503V34.125C-0.00675201 38.2688 3.35518 41.625 7.5008 41.625Z" fill="black"/>
</svg>
