<svg width="60" height="60" viewBox="0 0 60 60" fill="none" xmlns="http://www.w3.org/2000/svg">
<path d="M37.4999 35C44.1749 35 57.4999 38.325 57.4999 45V50H17.4999V45C17.4999 38.325 30.8249 35 37.4999 35ZM37.4999 30C34.8477 30 32.3042 28.9464 30.4288 27.0711C28.5535 25.1957 27.4999 22.6522 27.4999 20C27.4999 17.3478 28.5535 14.8043 30.4288 12.9289C32.3042 11.0536 34.8477 10 37.4999 10C40.1521 10 42.6956 11.0536 44.571 12.9289C46.4463 14.8043 47.4999 17.3478 47.4999 20C47.4999 22.6522 46.4463 25.1957 44.571 27.0711C42.6956 28.9464 40.1521 30 37.4999 30ZM12.4999 23.975L17.7999 18.65L21.3499 22.2L16.0249 27.5L21.3499 32.8L17.7999 36.35L12.4999 31.025L7.1999 36.35L3.6499 32.8L8.9749 27.5L3.6499 22.2L7.1999 18.65L12.4999 23.975Z" fill="black"/>
</svg>
