<svg width="60" height="60" viewBox="0 0 60 60" fill="none" xmlns="http://www.w3.org/2000/svg">
<path d="M39.8763 50.8629L30 56.25L20.1237 50.8629C16.8708 49.0886 14.156 46.4708 12.2646 43.2846C10.3732 40.0984 9.37499 36.4616 9.375 32.7562V13.125C11.8614 13.125 14.246 12.1373 16.0041 10.3791C17.7623 8.62097 18.75 6.2364 18.75 3.75H41.25C41.25 6.2364 42.2377 8.62097 43.9959 10.3791C45.754 12.1373 48.1386 13.125 50.625 13.125V32.7562C50.625 36.4616 49.6268 40.0984 47.7354 43.2846C45.844 46.4708 43.1292 49.0886 39.8763 50.8629Z" fill="#81DEE3" stroke="black" stroke-width="1.875" stroke-linecap="round" stroke-linejoin="round"/>
<path d="M30 41.25C36.2132 41.25 41.25 36.2132 41.25 30C41.25 23.7868 36.2132 18.75 30 18.75C23.7868 18.75 18.75 23.7868 18.75 30C18.75 36.2132 23.7868 41.25 30 41.25Z" fill="#F1C40F" stroke="black" stroke-width="1.875" stroke-linecap="round" stroke-linejoin="round"/>
<path d="M26.25 35.625C27.8033 35.625 29.0625 34.3658 29.0625 32.8125C29.0625 31.2592 27.8033 30 26.25 30C24.6967 30 23.4375 31.2592 23.4375 32.8125C23.4375 34.3658 24.6967 35.625 26.25 35.625Z" fill="white" stroke="black" stroke-width="1.875" stroke-linecap="round" stroke-linejoin="round"/>
<path d="M34.6875 30C35.723 30 36.5625 29.1605 36.5625 28.125C36.5625 27.0895 35.723 26.25 34.6875 26.25C33.652 26.25 32.8125 27.0895 32.8125 28.125C32.8125 29.1605 33.652 30 34.6875 30Z" fill="white" stroke="black" stroke-width="1.875" stroke-linecap="round" stroke-linejoin="round"/>
<path d="M33.75 37.5C34.2678 37.5 34.6875 37.0803 34.6875 36.5625C34.6875 36.0447 34.2678 35.625 33.75 35.625C33.2322 35.625 32.8125 36.0447 32.8125 36.5625C32.8125 37.0803 33.2322 37.5 33.75 37.5Z" fill="#373737"/>
<path d="M25.3125 27.1875C25.8303 27.1875 26.25 26.7678 26.25 26.25C26.25 25.7322 25.8303 25.3125 25.3125 25.3125C24.7947 25.3125 24.375 25.7322 24.375 26.25C24.375 26.7678 24.7947 27.1875 25.3125 27.1875Z" fill="#373737"/>
<path d="M30 23.4375C30.5178 23.4375 30.9375 23.0178 30.9375 22.5C30.9375 21.9822 30.5178 21.5625 30 21.5625C29.4822 21.5625 29.0625 21.9822 29.0625 22.5C29.0625 23.0178 29.4822 23.4375 30 23.4375Z" fill="#373737"/>
<path d="M30 15V18.75" stroke="black" stroke-width="1.875" stroke-linecap="round" stroke-linejoin="round"/>
<path d="M30 41.25V45" stroke="black" stroke-width="1.875" stroke-linecap="round" stroke-linejoin="round"/>
<path d="M19.3933 19.3934L22.0449 22.0451" stroke="black" stroke-width="1.875" stroke-linecap="round" stroke-linejoin="round"/>
<path d="M37.9551 37.955L40.6067 40.6066" stroke="black" stroke-width="1.875" stroke-linecap="round" stroke-linejoin="round"/>
<path d="M15 30H18.75" stroke="black" stroke-width="1.875" stroke-linecap="round" stroke-linejoin="round"/>
<path d="M41.25 30H45" stroke="black" stroke-width="1.875" stroke-linecap="round" stroke-linejoin="round"/>
<path d="M19.3933 40.6066L22.0449 37.955" stroke="black" stroke-width="1.875" stroke-linecap="round" stroke-linejoin="round"/>
<path d="M37.9551 22.0451L40.6067 19.3934" stroke="black" stroke-width="1.875" stroke-linecap="round" stroke-linejoin="round"/>
</svg>
