<svg width="36" height="36" viewBox="0 0 36 36" fill="none" xmlns="http://www.w3.org/2000/svg">
<path d="M18 32.625C9.9225 32.625 3.375 26.0775 3.375 18C3.375 9.9225 9.9225 3.375 18 3.375C26.0775 3.375 32.625 9.9225 32.625 18C32.625 26.0775 26.0775 32.625 18 32.625ZM24.7061 13.7351C24.9806 13.4606 24.9806 13.014 24.7061 12.7395L23.2121 11.2466C22.9376 10.9721 22.491 10.9721 22.2165 11.2466L17.9854 15.4778L13.7542 11.2466C13.4797 10.9721 13.0331 10.9721 12.7586 11.2466L11.2646 12.7395C10.9901 13.014 10.9901 13.4606 11.2646 13.7351L15.4969 17.9674L11.2646 22.1974C10.9901 22.4719 10.9901 22.9185 11.2646 23.193L12.7586 24.687C13.0331 24.9615 13.4797 24.9615 13.7542 24.687L17.9854 20.4548L22.2165 24.687C22.491 24.9615 22.9376 24.9615 23.2121 24.687L24.7061 23.193C24.9806 22.9185 24.9806 22.4719 24.7061 22.1974L20.4739 17.9674L24.7061 13.7351Z" fill="white"/>
</svg>
