<svg width="60" height="60" viewBox="0 0 60 60" fill="none" xmlns="http://www.w3.org/2000/svg">
<path d="M46.0504 58.3105H13.9494L10.5703 39.5568H49.4295L46.0504 58.3105Z" fill="#FFF476"/>
<path d="M33.3404 7.98704C37.2967 4.03079 44.5658 4.88556 44.5658 4.88556C44.5658 4.88556 45.4206 12.1546 41.4643 16.1109C37.5081 20.0673 30.239 19.2124 30.239 19.2124C30.239 19.2124 29.3842 11.9433 33.3404 7.98704Z" fill="#EB87BF"/>
<path d="M33.3404 30.9156C29.3842 26.9594 30.239 19.6902 30.239 19.6902C30.239 19.6902 37.508 18.8355 41.4643 22.7917C45.4207 26.748 44.5658 34.0171 44.5658 34.0171C44.5658 34.0171 37.2966 34.8719 33.3404 30.9156Z" fill="#EB87BF"/>
<path d="M43.0476 13.9423C42.6325 14.723 42.1136 15.4616 41.4644 16.1108C40.1103 17.4652 38.3678 18.2553 36.6616 18.7094C36.6294 18.9523 36.6108 19.1995 36.6108 19.4514C36.6108 19.7032 36.6291 19.9502 36.6616 20.1933C38.3677 20.6474 40.1101 21.4376 41.4644 22.7919C42.1135 23.441 42.6325 24.1796 43.0476 24.9605C45.7179 24.5463 47.7619 22.2378 47.7619 19.4515C47.7619 16.6651 45.7179 14.3564 43.0476 13.9423Z" fill="#FFF476"/>
<path d="M18.5359 16.1108C14.5795 12.1546 15.4343 4.88556 15.4343 4.88556C15.4343 4.88556 22.7033 4.03079 26.6597 7.98704C30.616 11.9433 29.7611 19.2124 29.7611 19.2124C29.7611 19.2124 22.492 20.0672 18.5359 16.1108Z" fill="#EB87BF"/>
<path d="M30 1.68945C27.2136 1.68945 24.905 3.73344 24.491 6.40379C25.2717 6.81887 26.0103 7.33789 26.6595 7.98699C28.0136 9.34133 28.8041 11.0836 29.2582 12.7898C29.501 12.822 29.7482 12.8405 30.0001 12.8405C30.2519 12.8405 30.4989 12.8223 30.742 12.7898C31.1961 11.0837 31.9863 9.34133 33.3406 7.98699C33.9897 7.33789 34.7283 6.81887 35.5092 6.40379C35.095 3.73344 32.7863 1.68945 30 1.68945Z" fill="#FFF476"/>
<path d="M18.536 22.7917C22.4923 18.8355 29.7614 19.6902 29.7614 19.6902C29.7614 19.6902 30.6162 26.9593 26.6599 30.9156C22.7037 34.872 15.4345 34.0171 15.4345 34.0171C15.4345 34.0171 14.5796 26.7481 18.536 22.7917Z" fill="#EB87BF"/>
<path d="M18.5358 22.7917C19.8899 21.4376 21.6324 20.6471 23.3386 20.193C23.3709 19.9502 23.3894 19.703 23.3894 19.4511C23.3894 19.1994 23.3711 18.9523 23.3386 18.7092C21.6325 18.2551 19.8902 17.4649 18.5358 16.1106C17.8867 15.4615 17.3677 14.7228 16.9526 13.942C14.2823 14.3562 12.2383 16.6646 12.2383 19.451C12.2383 22.2374 14.2823 24.546 16.9526 24.96C17.3677 24.1795 17.8865 23.441 18.5358 22.7917Z" fill="#FFF476"/>
<path d="M33.3404 30.9156C31.9863 29.5615 31.1958 27.819 30.7417 26.1128C30.4989 26.0805 30.2517 26.062 29.9998 26.062C29.7481 26.062 29.501 26.0803 29.2579 26.1128C28.8038 27.8189 28.0136 29.5612 26.6593 30.9156C26.0102 31.5647 25.2715 32.0837 24.4907 32.4988C24.9049 35.1691 27.2133 37.2131 29.9997 37.2131C32.7861 37.2131 35.0947 35.1691 35.5087 32.4988C34.7281 32.0836 33.9895 31.5648 33.3404 30.9156Z" fill="#FFF476"/>
<path d="M44.4355 29.4196C44.8088 31.9494 44.5658 34.0171 44.5658 34.0171C44.5658 34.0171 39.4866 34.6137 35.5088 32.4985C35.5089 32.4985 35.5089 32.4987 35.5091 32.4987C35.095 35.169 32.7865 37.213 30.0001 37.213C27.2138 37.213 24.9052 35.169 24.4912 32.4987C24.4916 32.4985 24.492 32.4982 24.4926 32.498C20.5145 34.6135 15.4345 34.0171 15.4345 34.0171C15.4345 34.0171 15.1916 31.9494 15.5649 29.4196H5.92432V39.5567H54.0758V29.4196H44.4355Z" fill="#7BD36A"/>
<path d="M38.4475 48.1726C38.0032 48.1726 37.5674 47.9936 37.2531 47.6793C37.1754 47.5998 37.1043 47.5137 37.0435 47.4225C36.9827 47.3296 36.9303 47.2316 36.8881 47.1302C36.8459 47.0289 36.8121 46.9225 36.7918 46.8143C36.7699 46.7045 36.7581 46.5947 36.7581 46.4849C36.7581 46.3733 36.7699 46.2635 36.7918 46.1537C36.8121 46.0455 36.8458 45.9391 36.8881 45.8378C36.9303 45.7364 36.9827 45.6384 37.0435 45.5455C37.1043 45.4542 37.1754 45.3664 37.2531 45.2887C37.645 44.8968 38.2296 44.7177 38.777 44.8275C38.8851 44.8494 38.9915 44.8815 39.0929 44.9238C39.1959 44.966 39.294 45.0184 39.3852 45.0792C39.4781 45.14 39.5642 45.2111 39.6419 45.2887C39.7196 45.3664 39.7906 45.4543 39.8515 45.5455C39.9123 45.6384 39.9647 45.7364 40.0068 45.8378C40.049 45.9391 40.0829 46.0455 40.1032 46.1537C40.1251 46.2635 40.1369 46.3733 40.1369 46.4849C40.1369 46.5947 40.1251 46.7045 40.1032 46.8143C40.0829 46.9225 40.0491 47.0289 40.0068 47.1302C39.9645 47.2316 39.9123 47.3296 39.8515 47.4225C39.7906 47.5138 39.7196 47.5999 39.6419 47.6793C39.5642 47.757 39.4781 47.828 39.3852 47.8888C39.2939 47.9496 39.1959 48.002 39.0929 48.0442C38.9915 48.0864 38.8851 48.1185 38.777 48.1405C38.6692 48.1623 38.5575 48.1726 38.4475 48.1726Z" fill="black"/>
<path d="M54.0758 27.7301H45.8349C45.704 27.1604 45.5401 26.5808 45.3373 26.004C47.8076 24.8279 49.4512 22.3275 49.4512 19.4514C49.4512 16.5752 47.8076 14.0748 45.3373 12.8987C46.7173 8.97105 46.2713 4.92398 46.2435 4.68832C46.1521 3.91148 45.5397 3.29883 44.7629 3.20766C44.527 3.18 40.4799 2.73387 36.5522 4.11387C35.3766 1.64355 32.8762 0 30.0001 0C27.1239 0 24.6235 1.64355 23.4474 4.11387C19.5197 2.73387 15.4724 3.17988 15.2368 3.20766C14.4599 3.29906 13.8475 3.91172 13.7561 4.68832C13.7285 4.92398 13.2826 8.97105 14.6623 12.8987C12.192 14.0748 10.5485 16.5752 10.5485 19.4514C10.5485 22.3275 12.192 24.8279 14.6623 26.004C14.4596 26.5811 14.2959 27.1605 14.1647 27.7301H5.92436C4.99119 27.7301 4.23486 28.4865 4.23486 29.4196V39.5568C4.23486 40.4899 4.99131 41.2462 5.92436 41.2462H9.15826L12.2869 58.61C12.4319 59.4146 13.1321 60 13.9496 60H46.0506C46.8683 60 47.5683 59.4148 47.7133 58.61L50.842 41.2462H54.0759C55.009 41.2462 55.7654 40.4898 55.7654 39.5568V29.4196C55.7654 28.4864 55.0089 27.7301 54.0758 27.7301ZM19.1532 24.648C19.2036 24.5822 19.2556 24.5176 19.3081 24.4536C19.3203 24.439 19.3321 24.4239 19.3443 24.4096C19.3911 24.3537 19.4395 24.2989 19.4881 24.2445C19.5042 24.2265 19.5197 24.2081 19.5359 24.1905C19.5993 24.1213 19.664 24.0532 19.7306 23.9866C19.843 23.8743 19.9615 23.7662 20.0839 23.6605C20.1019 23.6448 20.1199 23.6289 20.1381 23.6134C20.2603 23.51 20.3872 23.4098 20.5188 23.3132C20.5322 23.3032 20.546 23.2934 20.5594 23.2836C21.4318 22.6519 22.5077 22.1629 23.7733 21.8259C23.7768 21.8249 23.7802 21.8232 23.7837 21.8224C25.4173 21.3911 27.0406 21.3015 28.1478 21.3039C28.1525 22.4089 28.0633 24.0238 27.6357 25.6502C27.633 25.6598 27.6284 25.6689 27.6258 25.6785C27.2885 26.9457 26.7986 28.023 26.1658 28.8959C26.1575 28.9073 26.1493 28.9188 26.1408 28.9302C26.0433 29.063 25.9423 29.1909 25.838 29.3141C25.8228 29.332 25.8071 29.3496 25.7917 29.3673C25.6859 29.4898 25.5776 29.6086 25.4651 29.7211C25.3978 29.7885 25.3286 29.8539 25.2585 29.9181C25.2257 29.9482 25.1917 29.9774 25.1582 30.0069C25.1226 30.0383 25.0871 30.0696 25.051 30.1002C25.0039 30.1399 24.9557 30.1793 24.9071 30.218C24.8865 30.2345 24.8658 30.2509 24.8451 30.2672C24.7842 30.3149 24.7223 30.362 24.6589 30.408C24.6547 30.4111 24.6504 30.4141 24.6462 30.4172C24.3534 30.6298 24.0374 30.8265 23.7001 31.0062C23.6997 31.0063 23.6996 31.0063 23.6992 31.0065C21.4347 32.211 18.6766 32.4082 17.0474 32.4036C17.0447 31.7664 17.0736 30.9593 17.1813 30.0778C17.1881 30.0247 17.195 29.9718 17.2024 29.9183C17.2058 29.8923 17.2095 29.8663 17.213 29.84C17.4617 28.0786 18.0186 26.1391 19.1449 24.6598C19.1474 24.6558 19.1503 24.6519 19.1532 24.648ZM36.2272 21.8258C37.4978 22.164 38.5776 22.6554 39.4518 23.2908C39.4591 23.2961 39.4662 23.3012 39.4735 23.3065C39.6092 23.4059 39.7396 23.5091 39.8651 23.6155C39.8812 23.6292 39.897 23.6432 39.9129 23.6571C40.0365 23.7637 40.1562 23.8731 40.2698 23.9864C40.274 23.9906 40.2779 23.9951 40.2821 23.9993C40.3446 24.0621 40.4056 24.1263 40.4654 24.1914C40.4972 24.2262 40.5284 24.2621 40.5598 24.298C40.5892 24.3314 40.6188 24.365 40.6477 24.399C40.6884 24.4472 40.7285 24.4963 40.7682 24.5462C40.7839 24.566 40.7996 24.5856 40.8152 24.6055C40.8629 24.6667 40.9101 24.7287 40.9564 24.7921C40.9599 24.7968 40.9633 24.8017 40.9668 24.8065C41.1795 25.0995 41.3765 25.4157 41.5562 25.7536C41.5607 25.7623 41.5668 25.7698 41.5715 25.7782C42.2235 27.011 42.5778 28.3905 42.7633 29.655C42.7638 29.6587 42.7638 29.6624 42.7644 29.666C42.801 29.9143 42.8308 30.158 42.8553 30.3954C42.8575 30.4173 42.8599 30.4395 42.8621 30.4615C42.8717 30.5583 42.8804 30.6538 42.8882 30.748C42.8923 30.7969 42.896 30.845 42.8996 30.8931C42.9043 30.955 42.9087 31.0163 42.9126 31.077C42.9167 31.1398 42.9203 31.2018 42.9237 31.2632C42.9251 31.2881 42.9264 31.3129 42.9276 31.3377C42.9474 31.7268 42.9541 32.0865 42.9528 32.4033C41.3185 32.4068 38.5661 32.2104 36.3026 31.0069C36.3023 31.0068 36.3018 31.0065 36.3015 31.0064C35.9623 30.8259 35.6449 30.6282 35.3511 30.4146C35.3491 30.4131 35.3469 30.4116 35.3449 30.41C35.2798 30.3627 35.2164 30.3143 35.1537 30.2654C35.1345 30.2502 35.1152 30.2351 35.096 30.2196C35.0462 30.1799 34.9969 30.1398 34.9488 30.0991C34.9135 30.0693 34.8787 30.0384 34.8439 30.0078C34.8098 29.9777 34.7753 29.9481 34.7418 29.9175C34.6721 29.8535 34.6031 29.7882 34.5357 29.7209C34.4232 29.6084 34.3149 29.4895 34.2091 29.3671C34.1937 29.3494 34.178 29.3318 34.1628 29.3139C34.0585 29.1907 33.9575 29.063 33.86 28.9302C33.8515 28.9187 33.8432 28.9072 33.835 28.8957C33.202 28.0229 32.7124 26.9457 32.375 25.6784C32.3724 25.6685 32.3678 25.6597 32.3651 25.6501C31.9375 24.0234 31.8483 22.4085 31.8529 21.3038C32.953 21.2957 34.555 21.3841 36.171 21.806C36.1898 21.812 36.2076 21.8205 36.2272 21.8258ZM32.4618 32.4121C32.4807 32.4293 32.5005 32.4458 32.5195 32.4629C32.6097 32.5441 32.7006 32.6243 32.7929 32.7016C32.8169 32.7218 32.8417 32.741 32.866 32.7609C32.9554 32.8346 33.0454 32.9071 33.1367 32.9771C33.1662 33 33.1968 33.0219 33.2267 33.0445C33.3135 33.1098 33.4007 33.1741 33.4891 33.2362C33.502 33.2452 33.514 33.2549 33.5269 33.2639C33.4849 33.3541 33.4397 33.4429 33.3911 33.5292C33.3789 33.5509 33.3651 33.5716 33.3526 33.5931C33.3119 33.662 33.2696 33.7297 33.2249 33.7958C33.2054 33.8249 33.1849 33.8531 33.1645 33.8815C33.1229 33.9396 33.0799 33.9963 33.0352 34.052C33.0133 34.0794 32.9913 34.107 32.9687 34.1336C32.9181 34.1932 32.8656 34.2509 32.8117 34.3072C32.7937 34.3261 32.7766 34.3459 32.7582 34.3643C32.6851 34.438 32.6091 34.5089 32.5305 34.5766C32.5155 34.5895 32.4996 34.6011 32.4843 34.6138C32.4197 34.6677 32.3538 34.7197 32.2858 34.7694C32.2583 34.7896 32.2299 34.8088 32.2018 34.8282C32.1433 34.8688 32.0837 34.9078 32.0231 34.9452C31.9925 34.9639 31.9619 34.9827 31.9308 35.0006C31.8659 35.0381 31.7997 35.0733 31.7328 35.107C31.7061 35.1204 31.6799 35.1349 31.6531 35.1477C31.559 35.1925 31.4631 35.2342 31.3654 35.2713C31.3535 35.2759 31.341 35.2793 31.3291 35.2839C31.243 35.3156 31.1555 35.3446 31.0671 35.3702C31.0342 35.3797 31.001 35.3878 30.9679 35.3964C30.8978 35.4146 30.8272 35.4313 30.7559 35.4457C30.7192 35.4531 30.6824 35.4601 30.6454 35.4664C30.5724 35.479 30.4988 35.4887 30.4247 35.4971C30.3913 35.5009 30.3582 35.5056 30.3246 35.5085C30.2174 35.5177 30.1096 35.5235 30.0006 35.5235C29.8927 35.5235 29.7856 35.5178 29.6794 35.5089C29.6457 35.5059 29.6125 35.5012 29.5789 35.4975C29.5061 35.4894 29.4338 35.4799 29.362 35.4677C29.3242 35.4613 29.2867 35.454 29.2495 35.4466C29.1809 35.4329 29.1129 35.4171 29.0456 35.3996C29.0103 35.3905 28.9749 35.382 28.94 35.3718C28.8632 35.3496 28.7876 35.3244 28.7128 35.2978C28.6895 35.2895 28.666 35.2826 28.643 35.274C28.5467 35.2376 28.4521 35.1973 28.3592 35.1534C28.334 35.1416 28.31 35.1281 28.2853 35.1157C28.2175 35.082 28.1506 35.0469 28.0851 35.0094C28.0526 34.9908 28.0211 34.9712 27.9891 34.9518C27.9318 34.9168 27.8755 34.8805 27.82 34.8427C27.7886 34.8212 27.7572 34.7995 27.7263 34.7772C27.6693 34.7358 27.6141 34.6925 27.5595 34.6484C27.5338 34.6276 27.5076 34.6077 27.4825 34.5861C27.4052 34.52 27.3298 34.4518 27.2576 34.38C27.2484 34.3707 27.2399 34.3605 27.2306 34.3513C27.1678 34.2875 27.107 34.2217 27.0488 34.1538C27.0258 34.1271 27.0042 34.0992 26.9819 34.0719C26.9388 34.0188 26.8966 33.9649 26.8562 33.9096C26.8333 33.8783 26.8112 33.8468 26.7892 33.8148C26.7509 33.7589 26.7144 33.7017 26.679 33.6437C26.6601 33.6127 26.6406 33.5817 26.6224 33.5501C26.5817 33.4789 26.5436 33.4059 26.5073 33.3321C26.4977 33.3127 26.487 33.2939 26.4778 33.2741C26.4762 33.2709 26.4751 33.2673 26.4735 33.2641C26.487 33.2546 26.4999 33.2446 26.5136 33.235C26.5996 33.1743 26.6847 33.1117 26.7694 33.048C26.8015 33.0239 26.8341 33.0004 26.8659 32.9759C26.9551 32.9073 27.0429 32.8365 27.1303 32.7647C27.1563 32.7432 27.1831 32.7226 27.2088 32.7009C27.2995 32.6249 27.3887 32.5461 27.4774 32.4664C27.4978 32.448 27.5191 32.4302 27.5394 32.4118C27.6461 32.314 27.7516 32.2137 27.8549 32.1102C27.9514 32.0137 28.0446 31.9151 28.1362 31.8156C28.158 31.7919 28.1798 31.7682 28.2012 31.7445C28.2904 31.6457 28.378 31.5458 28.4626 31.4443C28.4772 31.4268 28.4913 31.4087 28.5058 31.3911C28.5792 31.3021 28.6506 31.2118 28.7205 31.121C28.7426 31.0921 28.7651 31.0636 28.7869 31.0345C28.8619 30.935 28.9348 30.8344 29.0057 30.7328C29.0326 30.6945 29.0588 30.6555 29.0853 30.6169C29.14 30.5363 29.1938 30.4552 29.2462 30.3736C29.2847 30.3136 29.3227 30.2531 29.3602 30.1922C29.403 30.1227 29.4451 30.053 29.4863 29.9829C29.5197 29.9259 29.553 29.8692 29.5858 29.8114C29.6355 29.7236 29.6837 29.6352 29.7308 29.5465C29.7681 29.4764 29.8047 29.4054 29.8409 29.3341C29.8596 29.2975 29.8774 29.2608 29.8955 29.224C29.9303 29.1536 29.9665 29.0846 30.0003 29.0129C30.034 29.0845 30.0703 29.1536 30.1051 29.224C30.1231 29.2607 30.1413 29.2975 30.1597 29.3341C30.1959 29.4054 30.2324 29.4764 30.2698 29.5465C30.3169 29.6352 30.3653 29.7236 30.4148 29.8114C30.4474 29.8692 30.4809 29.9259 30.5143 29.9829C30.5555 30.053 30.5976 30.1226 30.6404 30.1922C30.6781 30.2531 30.7158 30.3138 30.7544 30.3736C30.8068 30.4552 30.8604 30.5363 30.9153 30.6169C30.9417 30.6555 30.968 30.6945 30.9949 30.7328C31.0659 30.8343 31.1388 30.935 31.2137 31.0345C31.2356 31.0636 31.258 31.0922 31.2801 31.121C31.3501 31.212 31.4215 31.3022 31.4948 31.3911C31.5093 31.4087 31.5235 31.4268 31.538 31.4443C31.6226 31.5457 31.7102 31.6458 31.7994 31.7445C31.821 31.7682 31.8426 31.7919 31.8644 31.8156C31.9559 31.9151 32.0492 32.0136 32.1456 32.1102C32.2494 32.2137 32.3549 32.3142 32.4618 32.4121ZM43.8137 15.9237C45.1526 16.5482 46.0726 17.919 46.0726 19.4514C46.0726 20.9837 45.1528 22.3547 43.8137 22.9791C43.8122 22.9771 43.8107 22.9753 43.8094 22.9733C43.728 22.857 43.6437 22.7419 43.557 22.628C43.5467 22.6145 43.5364 22.6011 43.5261 22.5878C43.3585 22.3697 43.1811 22.1566 42.9933 21.9497C42.9745 21.9287 42.9554 21.908 42.9363 21.8873C42.8459 21.7894 42.7542 21.6922 42.659 21.5973C42.5623 21.5006 42.4639 21.4076 42.3644 21.3158C42.3407 21.294 42.3173 21.2723 42.2933 21.2508C42.1946 21.1616 42.0947 21.0742 41.9935 20.9896C41.9754 20.9746 41.9568 20.96 41.9388 20.9449C41.8504 20.8721 41.7609 20.8011 41.6706 20.7319C41.6415 20.7094 41.6124 20.6866 41.5828 20.6645C41.4836 20.5898 41.3834 20.5173 41.2824 20.4468C41.2433 20.4193 41.2035 20.3924 41.1638 20.3655C41.0844 20.3116 41.0047 20.2588 40.9243 20.2071C40.8631 20.1677 40.8011 20.1288 40.7389 20.0905C40.6703 20.0483 40.6013 20.0067 40.5323 19.9659C40.475 19.9323 40.4178 19.8987 40.3597 19.8659C40.2717 19.8162 40.1833 19.7679 40.0944 19.7208C40.0249 19.6837 39.9547 19.6477 39.884 19.6118C39.8446 19.5919 39.8049 19.5724 39.7654 19.553C39.6973 19.5193 39.6304 19.4844 39.5613 19.4516C39.9315 19.2768 40.2842 19.0859 40.623 18.8824C40.6651 18.8572 40.7071 18.8324 40.7488 18.8067C40.8238 18.7604 40.8976 18.7131 40.9708 18.6653C41.023 18.6313 41.0749 18.5971 41.1265 18.5623C41.1931 18.5174 41.2592 18.472 41.3242 18.426C41.382 18.3851 41.4393 18.3432 41.4964 18.3012C41.5553 18.2577 41.6145 18.2142 41.6723 18.1697C41.7353 18.1212 41.7973 18.071 41.8593 18.021C41.9103 17.9797 41.9621 17.9391 42.012 17.897C42.0821 17.8382 42.1509 17.777 42.2198 17.7161C42.2602 17.6802 42.3017 17.6453 42.3415 17.6088C42.4407 17.5181 42.5384 17.4245 42.6346 17.3289C42.6424 17.3211 42.6508 17.3139 42.6587 17.306C42.6603 17.3044 42.6621 17.3025 42.6637 17.3006C42.7563 17.2078 42.8458 17.1132 42.934 17.0179C42.9543 16.9959 42.9745 16.9739 42.9945 16.9518C43.1812 16.7459 43.3576 16.534 43.5243 16.3168C43.5353 16.3024 43.5465 16.2882 43.5572 16.2739C43.6434 16.1607 43.7272 16.0465 43.8081 15.9308C43.8103 15.928 43.8119 15.9258 43.8137 15.9237ZM42.9626 6.4991C42.9704 8.63016 42.5812 11.9766 40.8562 14.2429C40.8531 14.2467 40.8501 14.2508 40.8471 14.2548C40.7967 14.3207 40.7446 14.3854 40.692 14.4495C40.6801 14.464 40.6683 14.4789 40.6564 14.493C40.6093 14.5495 40.5606 14.6046 40.5115 14.6593C40.4958 14.6767 40.4806 14.6948 40.4649 14.7121C40.4014 14.7816 40.3367 14.8496 40.2701 14.9162C40.1571 15.0293 40.0376 15.138 39.9147 15.2445C39.8982 15.2586 39.8819 15.2734 39.8654 15.2873C39.7417 15.3921 39.6132 15.4936 39.4797 15.5917C39.4687 15.5998 39.4576 15.6077 39.4465 15.6158C38.5734 16.2493 37.4956 16.7395 36.2275 17.0769C36.2187 17.0793 36.2106 17.0834 36.2019 17.0858C34.6135 17.5036 33.0362 17.5991 31.9339 17.5991C31.9032 17.5991 31.8727 17.5991 31.8426 17.599C31.8353 15.6144 32.1724 12.5756 33.6122 10.3371C33.6722 10.2445 33.7332 10.1532 33.7961 10.0649C33.8321 10.014 33.8691 9.96398 33.9064 9.91406C33.9883 9.80496 34.0716 9.6975 34.1581 9.59496C34.1783 9.57117 34.1991 9.54797 34.2196 9.5243C34.3222 9.40617 34.4268 9.29098 34.5356 9.18211C34.603 9.11473 34.6721 9.04934 34.7421 8.98512C34.7746 8.95523 34.8085 8.92617 34.8418 8.89676C34.8776 8.86512 34.9136 8.83359 34.9499 8.80277C34.9969 8.76328 35.0447 8.72426 35.093 8.6857C35.114 8.66894 35.1347 8.6523 35.1558 8.6359C35.2165 8.58855 35.278 8.5418 35.3409 8.49586C35.3456 8.49234 35.3505 8.48894 35.3553 8.48543C35.6484 8.27273 35.9647 8.07574 36.3024 7.89609C36.3178 7.88801 36.3319 7.87875 36.3471 7.87008C38.5989 6.68531 41.3368 6.48996 42.9626 6.4991ZM26.4725 5.63801C27.097 4.29891 28.4678 3.3791 30.0002 3.3791C31.5328 3.3791 32.9036 4.29867 33.5279 5.63801C33.526 5.63941 33.5244 5.6407 33.5225 5.64188C33.4055 5.72367 33.29 5.80852 33.1756 5.89547C33.1629 5.90508 33.1503 5.91492 33.1376 5.92465C32.9187 6.09293 32.705 6.27082 32.4971 6.45937C32.4769 6.47766 32.457 6.49582 32.4373 6.5141C32.339 6.6048 32.2414 6.69703 32.1459 6.79254C32.0494 6.88898 31.9563 6.98766 31.8646 7.08703C31.8428 7.1107 31.821 7.13449 31.7994 7.15828C31.7102 7.25695 31.6228 7.3568 31.5381 7.45816C31.5233 7.47609 31.5087 7.49449 31.4941 7.51242C31.4211 7.60113 31.3499 7.69066 31.2806 7.78102C31.2581 7.8102 31.2354 7.83914 31.2133 7.86867C31.1387 7.96781 31.0661 8.06801 30.9953 8.16902C30.9679 8.20816 30.9411 8.24789 30.9141 8.2875C30.8604 8.36637 30.8078 8.44594 30.7565 8.52586C30.7164 8.58809 30.6771 8.6509 30.638 8.7143C30.5964 8.78191 30.5554 8.84977 30.5153 8.91809C30.4813 8.97586 30.4474 9.03387 30.4141 9.09258C30.3651 9.17953 30.3173 9.26695 30.2706 9.35484C30.2328 9.42598 30.1956 9.49816 30.1588 9.57047C30.1416 9.60457 30.1247 9.63891 30.1079 9.67324C30.072 9.74543 30.0351 9.81633 30.0003 9.8898C29.9658 9.8168 29.929 9.74637 29.8933 9.67453C29.8761 9.63973 29.8592 9.60492 29.8416 9.57023C29.8048 9.49781 29.7678 9.42574 29.7298 9.35461C29.6832 9.26707 29.6356 9.17988 29.5867 9.09328C29.5533 9.0341 29.5191 8.97574 29.4849 8.91738C29.4454 8.85 29.4049 8.78309 29.3637 8.71629C29.3239 8.6516 29.2837 8.58738 29.2428 8.52387C29.1921 8.445 29.1403 8.36672 29.0874 8.28891C29.0599 8.24848 29.0324 8.20793 29.0044 8.16809C28.9341 8.06777 28.862 7.96805 28.788 7.86949C28.7651 7.83926 28.7418 7.80938 28.7187 7.77949C28.6502 7.69008 28.5799 7.60172 28.5079 7.51418C28.4923 7.49543 28.4773 7.47621 28.4617 7.45746C28.3775 7.35656 28.2904 7.2573 28.2016 7.15887C28.1797 7.13449 28.1575 7.11059 28.1354 7.08645C28.044 6.98707 27.9509 6.88875 27.8546 6.79242C27.7594 6.69727 27.6623 6.60539 27.5643 6.51504C27.5437 6.49617 27.5231 6.47719 27.5021 6.45832C27.2951 6.27059 27.0821 6.09316 26.864 5.92559C26.8506 5.91527 26.8373 5.90496 26.8238 5.89465C26.7099 5.80793 26.5948 5.72367 26.4785 5.64223C26.4762 5.64082 26.4744 5.6393 26.4725 5.63801ZM23.654 7.86996C23.6687 7.8784 23.6829 7.88754 23.6979 7.89562C24.0373 8.07609 24.3554 8.27402 24.6496 8.48812C24.6516 8.48965 24.6537 8.49105 24.6555 8.49246C24.721 8.54027 24.7851 8.58891 24.8483 8.63824C24.8663 8.65242 24.8842 8.6666 24.9022 8.68102C24.9534 8.72168 25.0039 8.76293 25.0533 8.80465C25.0863 8.83254 25.1187 8.86113 25.1512 8.88961C25.1876 8.92172 25.2247 8.95359 25.2603 8.98629C25.325 9.0457 25.3887 9.10629 25.4514 9.16863C25.4558 9.17297 25.4606 9.1773 25.4649 9.18164C25.5778 9.29449 25.6864 9.41355 25.7926 9.53648C25.8074 9.55371 25.8227 9.57059 25.8373 9.58805C25.9419 9.71156 26.0432 9.83977 26.1411 9.97312C26.1492 9.98414 26.157 9.99504 26.1651 10.0061C26.7984 10.879 27.2883 11.9566 27.6257 13.2243C27.6284 13.2341 27.6329 13.243 27.6357 13.2526C28.0633 14.8792 28.1525 16.494 28.1479 17.5986C27.0453 17.6052 25.4369 17.5161 23.8156 17.0914C23.8011 17.0872 23.7879 17.0807 23.7732 17.0768C22.5045 16.7391 21.4263 16.2487 20.5528 15.6146C20.5429 15.6075 20.5333 15.6006 20.5236 15.5936C20.3896 15.4952 20.2607 15.3934 20.1365 15.2883C20.1194 15.2738 20.1025 15.2588 20.0855 15.244C19.9625 15.1379 19.8434 15.0291 19.7303 14.9162C19.7262 14.9121 19.7224 14.9078 19.7184 14.9037C19.6556 14.8405 19.5944 14.7761 19.5344 14.7108C19.5033 14.6768 19.4729 14.6416 19.4425 14.6068C19.4121 14.5724 19.3817 14.5377 19.3519 14.5025C19.3119 14.4551 19.2725 14.4068 19.2337 14.3579C19.2172 14.3373 19.2008 14.3167 19.1845 14.2959C19.1374 14.2355 19.0907 14.1743 19.0451 14.1118C19.0409 14.1062 19.0368 14.1005 19.0328 14.0947C18.8205 13.8021 18.6238 13.4862 18.4446 13.1489C18.4373 13.1352 18.4288 13.1225 18.4212 13.1091C17.2375 10.8606 17.0411 8.12637 17.0478 6.49898C18.6762 6.49102 21.4072 6.68812 23.654 7.86996ZM16.1867 22.9791C14.8476 22.3546 13.9278 20.9837 13.9278 19.4514C13.9278 17.9188 14.8474 16.5479 16.1867 15.9237C16.1882 15.9259 16.1901 15.928 16.1916 15.9305C16.2727 16.0464 16.3565 16.1607 16.4426 16.2739C16.4534 16.2881 16.4643 16.3022 16.4752 16.3164C16.6423 16.5339 16.8192 16.7462 17.0062 16.9525C17.0256 16.9739 17.0452 16.9952 17.0647 17.0164C17.1547 17.1141 17.2463 17.2109 17.3411 17.3057C17.4454 17.41 17.5515 17.5107 17.659 17.6093C17.6965 17.6436 17.7356 17.6763 17.7737 17.7102C17.8449 17.7734 17.916 17.8365 17.9886 17.8973C18.0376 17.9384 18.0879 17.9781 18.1378 18.0183C18.2009 18.0693 18.2641 18.1204 18.3283 18.1697C18.3853 18.2134 18.4434 18.2562 18.5015 18.2991C18.5597 18.342 18.6181 18.3847 18.6771 18.4263C18.7413 18.4718 18.8063 18.5163 18.8717 18.5606C18.9246 18.5963 18.9778 18.6314 19.0312 18.6661C19.1035 18.7131 19.1762 18.7597 19.25 18.8053C19.2935 18.832 19.3372 18.8578 19.3808 18.8841C19.7185 19.0867 20.0701 19.2769 20.4387 19.451C20.3723 19.4823 20.3084 19.5159 20.243 19.5482C20.1998 19.5695 20.1565 19.5906 20.1137 19.6124C20.0444 19.6475 19.9756 19.683 19.9075 19.7191C19.8175 19.767 19.7279 19.8159 19.6387 19.8663C19.5817 19.8986 19.5256 19.9314 19.4696 19.9643C19.3989 20.0059 19.3285 20.0483 19.2585 20.0913C19.1978 20.1287 19.1377 20.1663 19.0781 20.2046C18.9965 20.257 18.9154 20.3107 18.8348 20.3655C18.7958 20.392 18.7567 20.4186 18.7181 20.4456C18.6167 20.5166 18.5164 20.5891 18.4168 20.664C18.3876 20.6859 18.3588 20.7084 18.3299 20.7307C18.239 20.8004 18.1491 20.8719 18.0602 20.9453C18.0425 20.9598 18.0243 20.974 18.007 20.9888C17.9055 21.0734 17.8055 21.1611 17.7067 21.2503C17.6829 21.2718 17.6594 21.2934 17.636 21.315C17.5365 21.4068 17.4378 21.4998 17.3411 21.5965C17.3395 21.5981 17.3377 21.6 17.3361 21.6019C17.2433 21.6947 17.1537 21.7894 17.0656 21.8849C17.0454 21.9067 17.0254 21.9286 17.0055 21.9507C16.8188 22.1566 16.6424 22.3685 16.4757 22.5855C16.4646 22.6 16.4535 22.6143 16.4424 22.6288C16.3564 22.742 16.2726 22.8562 16.1916 22.9719C16.19 22.9747 16.1883 22.9767 16.1867 22.9791ZM7.61385 31.1091H13.6992C13.604 32.8443 13.7412 34.0868 13.7562 34.2143C13.8476 34.9911 14.4601 35.6038 15.2369 35.695C15.3321 35.7061 16.0481 35.7855 17.1268 35.7855C18.1331 35.7855 19.4549 35.7161 20.8821 35.4579C20.8925 35.456 20.903 35.4538 20.9135 35.452C21.0186 35.4328 21.1242 35.413 21.2302 35.3916C21.2788 35.3817 21.3281 35.3709 21.3768 35.3609C21.4454 35.3464 21.5137 35.3326 21.5826 35.3173C21.6632 35.2996 21.7443 35.2802 21.8252 35.261C21.8627 35.2522 21.9002 35.2439 21.9377 35.2346C22.0428 35.2091 22.1481 35.1819 22.254 35.154C22.2681 35.1503 22.2823 35.1469 22.2965 35.143C22.6785 35.0412 23.0629 34.9246 23.4461 34.79C23.453 34.8047 23.4615 34.8184 23.4686 34.8332C23.5368 34.9739 23.6085 35.1127 23.6852 35.2478C23.6948 35.2649 23.7051 35.2812 23.7149 35.2982C23.7896 35.4272 23.868 35.5536 23.9501 35.6773C23.9615 35.6944 23.9721 35.7117 23.9835 35.7286C24.0704 35.857 24.1618 35.9817 24.2562 36.1037C24.2749 36.1277 24.2934 36.1514 24.3124 36.1752C24.4087 36.2964 24.5078 36.4146 24.6114 36.529C24.6237 36.5425 24.6366 36.5555 24.6492 36.5691C24.749 36.6777 24.8522 36.7829 24.9585 36.885C24.9735 36.8994 24.9881 36.9142 25.0032 36.9286C25.1145 37.0338 25.2297 37.1347 25.3475 37.2326C25.3712 37.2521 25.3949 37.2717 25.419 37.2911C25.5383 37.3875 25.6599 37.481 25.7853 37.5698C25.801 37.581 25.8171 37.5913 25.8328 37.6023C25.9525 37.6857 26.075 37.7655 26.1999 37.8417C26.2129 37.8497 26.2252 37.8588 26.2382 37.8667H10.5705H7.61385V31.1091ZM44.6383 56.6209H15.3621L13.8399 48.1733H33.3793C34.3124 48.1733 35.0688 47.4169 35.0688 46.4838C35.0688 45.5507 34.3123 44.7943 33.3793 44.7943H13.231L12.5917 41.2464H47.4085L44.6383 56.6209ZM52.3863 37.8671H49.4296H33.7614C33.7745 37.8592 33.7867 37.85 33.7997 37.8422C33.9246 37.766 34.0471 37.6862 34.1669 37.6028C34.1826 37.5918 34.1988 37.5814 34.2144 37.5703C34.3397 37.4816 34.4614 37.388 34.5807 37.2915C34.6047 37.2721 34.6285 37.2526 34.6522 37.233C34.7701 37.1352 34.8851 37.0342 34.9967 36.9289C35.0117 36.9148 35.0261 36.9 35.041 36.8857C35.1476 36.7833 35.251 36.6777 35.3512 36.5687C35.3634 36.5556 35.3758 36.5428 35.3879 36.5297C35.4918 36.415 35.5914 36.2962 35.688 36.1745C35.7063 36.1515 35.7244 36.1283 35.7426 36.105C35.8378 35.9822 35.9296 35.8568 36.0169 35.7275C36.0274 35.712 36.0372 35.6961 36.0476 35.6805C36.1317 35.5543 36.2117 35.4253 36.2878 35.2934C36.2962 35.2788 36.305 35.2646 36.3133 35.2501C36.3912 35.1128 36.4641 34.972 36.5333 34.8289C36.5397 34.8158 36.5471 34.8034 36.5535 34.7903C36.8144 34.8818 37.076 34.9648 37.3369 35.0411C37.3504 35.0449 37.3638 35.0484 37.3771 35.0524C37.4841 35.0834 37.591 35.1134 37.6976 35.142C37.7306 35.1507 37.7634 35.1587 37.7963 35.1673C37.8828 35.1898 37.9695 35.2124 38.0556 35.2334C38.1148 35.2478 38.1735 35.2609 38.2325 35.2747C38.2919 35.2886 38.3518 35.303 38.4111 35.3161C38.5048 35.3368 38.5981 35.3563 38.6912 35.3754C38.7148 35.3803 38.7386 35.3856 38.7623 35.3903C40.3246 35.7043 41.7838 35.7857 42.8731 35.7857C43.9513 35.7857 44.6678 35.7062 44.763 35.6951C45.5398 35.6037 46.1522 34.991 46.2437 34.2144C46.2587 34.087 46.3959 32.8444 46.3007 31.1092H52.386V37.8671H52.3863Z" fill="black"/>
</svg>
