<svg width="60" height="60" viewBox="0 0 60 60" fill="none" xmlns="http://www.w3.org/2000/svg">
<g clip-path="url(#clip0_132_128)">
<path d="M53.3999 14.9954C52.8999 12.9953 51.7999 11.0954 49.8999 10.2953C49.0998 9.89537 48.0999 9.69533 46.9998 9.89537C46.9998 9.89537 45.1998 7.59533 44.9998 2.89541C44.9998 2.89541 40.9998 2.59541 39.9998 5.89541C39.9998 5.89541 44.0998 8.49545 43.9997 11.8954C43.9997 11.8954 43.8998 15.0954 44.9997 16.8954C45.8997 18.4954 47.8997 24.7954 41.1996 32.9955C41.6997 34.1955 41.9997 35.4954 41.9997 36.8955C41.9997 38.4954 41.5997 39.8955 40.9997 41.2955C43.8998 40.9955 46.5998 40.4955 48.9998 39.8955C53.6999 34.7954 56.3 26.9954 53.3999 14.9954Z" fill="#FD9808"/>
<path d="M51.0999 14.9954C50.6999 12.9953 49.9998 11.0954 48.5999 10.2953C47.9999 9.89537 47.2999 9.69533 46.4999 9.89537C46.4999 9.89537 45.1999 7.59533 44.9999 2.89541C44.9999 2.89541 42.0999 2.59541 41.3999 5.89541C41.3999 5.89541 44.3999 8.49545 44.2999 11.8954C44.2999 11.8954 44.2 15.0954 44.9999 16.8954C45.6999 18.4954 47.0999 24.7954 42.1999 32.9955C42.5999 34.1955 42.7999 35.4954 42.7999 36.8955C42.7999 38.4954 42.4999 39.8955 42.1 41.2955C44.2 40.9955 46.0999 40.4955 47.8999 39.8955C51.2999 34.7954 53.1999 26.9954 51.0999 14.9954Z" fill="#FFDD09"/>
<path d="M23.3999 41.6954C23.7999 40.5953 23.9999 39.3953 23.9999 38.1953C23.9999 32.6954 19.4999 27.8954 14 27.8954C8.69992 27.8954 4.39996 32.2954 4 37.5953C8.89996 39.6953 15.6999 41.1953 23.3999 41.6954Z" fill="#15A143"/>
<path d="M20.4999 41.6954C20.7999 40.5953 20.9999 39.3953 20.9999 38.1953C20.9999 32.6954 17.1999 27.8954 12.5 27.8954C7.99996 27.8954 4.3 32.2954 4 37.5953C8.19988 39.6953 13.8999 41.1953 20.4999 41.6954Z" fill="#1CD759"/>
<path d="M32 26.8953C27.7999 26.8953 24.2 29.4953 22.7 33.1953C23.5 34.6953 23.9999 36.3953 23.9999 38.1953C23.9999 39.3953 23.7999 40.5953 23.3999 41.6953C25.4999 41.7953 27.8 41.8954 29.9999 41.8954C33.8 41.8954 37.4999 41.6953 41 41.2954C41.6 39.9954 41.9999 38.4954 41.9999 36.8953C41.9999 31.3953 37.4999 26.8953 32 26.8953Z" fill="#33A9F8"/>
<path d="M31.1 26.8953C27.8 26.8953 24.9 29.4953 23.7 33.1953C24.3 34.6953 24.6999 36.3953 24.6999 38.1953C24.6999 39.3953 24.4999 40.5953 24.1999 41.6953C25.8999 41.7953 27.6999 41.8954 29.4999 41.8954C32.4999 41.8954 35.4999 41.6953 38.1999 41.2954C38.6999 39.9954 38.9999 38.4954 38.9999 36.8953C38.9999 31.3953 35.4999 26.8953 31.1 26.8953Z" fill="#54C9FD"/>
<path d="M22.6999 33.1953C23.9999 29.8953 26.9999 27.4953 30.5999 26.9952C31.4999 25.4952 31.9999 23.7952 31.9999 21.8952C31.9999 16.3953 27.4999 11.8953 22 11.8953C16.5 11.8953 12 16.3953 12 21.8952C12 24.1953 12.8 26.1952 14 27.8952C17.7998 27.8953 20.9999 29.9953 22.6999 33.1953Z" fill="#FD9808"/>
<path d="M23.0001 32.8953C24 29.5953 25.0001 27.4953 27.9 26.9952C28.6 25.4952 29.0001 23.7952 29.0001 21.8952C29.0001 16.3953 25.4001 11.8953 21 11.8953C16.6 11.8953 13 16.3953 13 21.8952C13 24.1953 13.6 26.1952 14.6 27.8952C17.6 27.8952 20.6 29.6952 22 32.8953H23.0001Z" fill="#FFDD09"/>
<path d="M30 51.8954C21.7 51.8954 14.3 50.3954 9 47.9954V56.8954H51V47.9954C45.7 50.3954 38.3 51.8954 30 51.8954Z" fill="#FD9808"/>
<path d="M28.5 51.8954C20.8 51.8954 13.9 50.3954 9 47.9954V56.8954H48V47.9954C43.1 50.3954 36.2 51.8954 28.5 51.8954Z" fill="#FFDD09"/>
<path d="M12 49.1954V56.8954H9V47.9954C9.9 48.3953 10.9 48.7953 12 49.1954Z" fill="white"/>
<path d="M29.9999 41.8952C18.2 41.8952 7.79992 39.8952 1.69996 36.3953C1.19992 37.2953 1 38.1953 1 39.1952C1 46.3952 14 51.8952 30 51.8952C46.0001 51.8952 59.0001 46.3952 59.0001 39.1952C59.0001 38.1953 58.8 37.2953 58.3001 36.3953C52.1999 39.8953 41.7999 41.8952 29.9999 41.8952Z" fill="#FD9808"/>
<path d="M28.5 41.8952C17.3001 41.8952 7.40008 39.8952 1.6 36.3953C1.20004 37.2953 1 38.1953 1 39.1952C1 46.3952 13.3 51.8952 28.5 51.8952C43.7001 51.8952 56.0001 46.3952 56.0001 39.1952C56.0001 38.1953 55.4001 38.7953 55.0001 37.8953C49.2 41.3953 39.7 41.8952 28.5 41.8952Z" fill="#FFDD09"/>
<path d="M1.70008 36.3953C2.70004 36.9953 3.80008 37.4953 5.00008 37.9952C4.60012 38.7953 4.00012 38.2952 4.00012 39.1952C4.00012 46.1952 15.9002 51.6953 30.8001 51.8952C30.5001 51.8952 30.3 51.8952 30 51.8952C14.0001 51.8952 1 46.3952 1 39.1952C1 38.1953 1.20004 37.2953 1.70008 36.3953Z" fill="white"/>
<path d="M27.9999 34.8953C27.9999 35.4953 27.6 35.8953 27 35.8953C26.4 35.8953 26 35.4953 26 34.8953C26 34.2953 26.4 33.8954 27 33.8954C27.6 33.8954 27.9999 34.2953 27.9999 34.8953Z" fill="black"/>
<path d="M30.9999 32.8952C30.9999 33.4952 30.6 33.8952 30 33.8952C29.4 33.8952 29 33.4952 29 32.8952C29 32.2952 29.4 31.8953 30 31.8953C30.6 31.8953 30.9999 32.2952 30.9999 32.8952Z" fill="black"/>
<path d="M28.9999 38.8952C28.9999 39.4952 28.6 39.8952 28 39.8952C27.4 39.8952 27 39.4952 27 38.8952C27 38.2952 27.4 37.8953 28 37.8953C28.5998 37.8953 28.9999 38.2952 28.9999 38.8952Z" fill="black"/>
<path d="M20.9999 40.8953C20.9999 41.4953 20.6 41.8953 20 41.8953C19.4 41.8953 19 41.4953 19 40.8953C19 40.2953 19.4 39.8954 20 39.8954C20.6 39.8954 20.9999 40.2953 20.9999 40.8953Z" fill="black"/>
<path d="M18.9999 37.8953C18.9999 38.4953 18.6 38.8953 18 38.8953C17.4 38.8953 17 38.4953 17 37.8953C17 37.2953 17.4 36.8954 18 36.8954C18.6 36.8954 18.9999 37.2953 18.9999 37.8953Z" fill="black"/>
<path d="M20.9999 34.8953C20.9999 35.4953 20.6 35.8953 20 35.8953C19.4 35.8953 19 35.4953 19 34.8953C19 34.2953 19.4 33.8954 20 33.8954C20.6 33.8954 20.9999 34.2953 20.9999 34.8953Z" fill="black"/>
<path d="M15.9999 34.8953C15.9999 35.4953 15.6 35.8953 15 35.8953C14.4 35.8953 14 35.4953 14 34.8953C14 34.2953 14.4 33.8954 15 33.8954C15.6 33.8954 15.9999 34.2953 15.9999 34.8953Z" fill="black"/>
<path d="M30.9999 35.8952C30.9999 36.4952 30.6 36.8952 30 36.8952C29.4 36.8952 29 36.4952 29 35.8952C29 35.2952 29.4 34.8953 30 34.8953C30.6 34.8953 30.9999 35.2952 30.9999 35.8952Z" fill="black"/>
<path d="M30 52.8953C13.2 52.8953 0 46.8953 0 39.1953C0 38.0952 0.3 36.9953 0.800039 35.9952C0.9 35.7952 1.10004 35.5953 1.40004 35.4952C1.70004 35.3952 2.00004 35.4952 2.20008 35.5951C8.1 38.8953 18.3 40.8953 30 40.8953C41.7 40.8953 51.9 38.8953 57.8 35.4953C58.0001 35.3953 58.3001 35.2953 58.6001 35.3953C58.9001 35.4953 59.1001 35.6953 59.2001 35.8954C59.7001 36.9954 60.0001 38.0953 60.0001 39.0954C60 46.8953 46.8 52.8953 30 52.8953ZM2.19996 37.7953C2.1 38.2954 1.99992 38.6953 1.99992 39.1954C1.99992 45.5953 14.5999 50.8954 29.9999 50.8954C45.3998 50.8954 57.9998 45.5953 57.9998 39.1954C57.9998 38.6953 57.8999 38.2954 57.7998 37.7953C51.5 40.9953 41.4 42.8953 30 42.8953C18.6 42.8953 8.49996 40.9953 2.19996 37.7953Z" fill="black"/>
<path d="M17 20.8952C17 21.4952 16.6001 21.8952 16.0001 21.8952C15.4001 21.8952 15 21.4952 15 20.8952C15 20.2952 15.4 19.8953 16 19.8953C16.6 19.8953 17 20.2952 17 20.8952Z" fill="black"/>
<path d="M19.9999 17.8952C19.9999 18.4952 19.6 18.8952 19 18.8952C18.4 18.8952 18 18.4952 18 17.8952C18 17.2952 18.4 16.8953 19 16.8953C19.5998 16.8953 19.9999 17.2952 19.9999 17.8952Z" fill="black"/>
<path d="M18.9999 24.8953C18.9999 25.4953 18.6 25.8953 18 25.8953C17.4 25.8953 17 25.4953 17 24.8953C17 24.2953 17.4 23.8954 18 23.8954C18.6 23.8953 18.9999 24.2953 18.9999 24.8953Z" fill="black"/>
<path d="M20.9999 21.8953C20.9999 22.4953 20.6 22.8953 20 22.8953C19.4 22.8953 19 22.4953 19 21.8953C19 21.2953 19.4 20.8954 20 20.8954C20.6 20.8953 20.9999 21.2953 20.9999 21.8953Z" fill="black"/>
<path d="M51 57.8953H8.99996C8.39996 57.8953 8 57.4953 8 56.8953V47.9953C8 47.6953 8.20004 47.2953 8.50004 47.1952C8.80004 46.9952 9.10004 46.9952 9.5 47.0953C14.8 49.5952 22.1 50.8953 30 50.8953C37.8999 50.8953 45.2 49.5954 50.6 47.0953C50.9 46.9953 51.3 46.9953 51.6 47.1952C51.9 47.3953 52.1 47.6953 52.1 47.9953V56.8953C51.9999 57.4952 51.6 57.8953 51 57.8953ZM9.99992 55.8952H49.9999V49.4953C44.6 51.6952 37.5 52.8952 30 52.8952C22.5 52.8952 15.3999 51.6952 9.99992 49.4953V55.8952Z" fill="black"/>
<path d="M41.0001 42.2953C40.7001 42.2953 40.4001 42.0953 40.2001 41.8954C40.0001 41.5954 40.0001 41.1954 40.1001 40.8954C40.7001 39.6954 41.0001 38.2954 41.0001 36.9954C41.0001 35.7954 40.8001 34.5954 40.3002 33.4954C40.2002 33.1954 40.2002 32.7954 40.4001 32.4954C47.6001 23.6955 44.2002 17.5954 44.1001 17.5954C42.9001 15.5953 43.0001 12.1954 43.0001 12.0954C43.1 9.39542 39.5 6.99542 39.5 6.99542C39.1001 6.79538 39 6.29546 39.1001 5.89538C40.1001 2.69534 43.5001 2.09534 45.1001 2.1953C45.6001 1.8953 46.0001 2.39534 46.0001 2.89526C46.1 6.0953 47 7.99526 47.5001 8.89526C48.4001 8.7953 49.4 8.99522 50.3 9.3953C52.3001 10.2953 53.7 12.1953 54.3 14.7953C57 25.6953 55.4 34.3953 49.7 40.5953C49.6001 40.6953 49.4 40.7953 49.2 40.8953C46.7 41.4953 44 41.9953 41.1 42.2953C41.1001 42.2953 41.0001 42.2953 41.0001 42.2953ZM42.3001 33.1953C42.7001 34.3953 43.0001 35.6952 43.0001 36.8952C43.0001 37.9953 42.8 38.9952 42.5 40.0953C44.6 39.7953 46.6001 39.3953 48.4001 38.9952C53.5001 33.2952 54.8 25.3953 52.3001 15.2952C52.0001 14.0952 51.3001 12.0952 49.4 11.2953C48.7001 10.8953 47.9 10.7952 47.2001 10.8953C46.8001 10.9953 46.5001 10.7953 46.2001 10.4953C46.1001 10.3954 44.4001 8.1953 44.1001 3.89534C43.2001 3.9953 41.9001 4.39538 41.3001 5.4953C42.6001 6.49526 45.1002 8.89526 45.1002 11.8953C45.1002 12.6953 45.2001 15.0953 46.0002 16.3953C47.3001 18.7953 48.4001 25.4953 42.3001 33.1953Z" fill="black"/>
<path d="M30.0001 42.8953C27.8001 42.8953 25.5001 42.7953 23.3001 42.6953C23.0001 42.6953 22.7001 42.4952 22.5001 42.1952C22.3 41.8952 22.3 41.5952 22.4001 41.2952C22.8001 40.2953 23.0001 39.1952 23.0001 38.1953C23.0001 36.6953 22.6001 35.0953 21.8001 33.6953C21.7001 33.3953 21.6001 33.0953 21.7001 32.8952C23.5001 28.5953 27.5001 25.8953 32.0001 25.8953C38.1001 25.8953 43.0001 30.7952 43.0001 36.8953C43.0001 38.5953 42.6002 40.1953 41.9001 41.6953C41.8001 41.9953 41.5001 42.1953 41.1001 42.2953C37.6 42.6953 33.8001 42.8953 30.0001 42.8953ZM24.7 40.7953C30.1 41.0953 35.4001 40.8953 40.3 40.3953C40.8001 39.2953 41 38.0953 41 36.9954C41 31.9953 37 27.9954 32 27.9954C28.4 27.9954 25.3 30.0954 23.8 33.2954C24.6001 34.8954 25 36.5954 25 38.2955C25 38.9953 24.9001 39.8953 24.7 40.7953Z" fill="black"/>
<path d="M23.4 42.6953C23.3 42.6953 23.3 42.6953 23.4 42.6953C15.5 42.1953 8.7 40.6953 3.69996 38.4953C3.19992 38.2953 3 37.8953 3 37.4953C3.39996 31.6954 8.30004 26.8954 14 26.8954C20 26.8954 25.0001 32.0953 25.0001 38.1954C25.0001 39.4954 24.8 40.7955 24.3001 41.9955C24.1 42.3953 23.8 42.6953 23.4 42.6953ZM5.1 36.8953C9.6 38.7953 15.7 40.0954 22.7 40.5953C22.9001 39.7953 23 38.9953 23 38.1953C23 33.1953 18.9 28.8953 14 28.8953C9.6 28.8953 5.7 32.3953 5.1 36.8953Z" fill="black"/>
<path d="M22.7 34.1953C22.4 34.1953 22.1 33.9953 21.9 33.7953C21.9 33.7953 21.9 33.6954 21.8 33.6954C20.2 30.6954 17.3 28.8954 14 28.8954C13.7 28.8954 13.4 28.7954 13.2 28.4954C11.7999 26.5955 11 24.2954 11 21.8954C11 15.7955 15.9 10.8954 22 10.8954C28.1001 10.8954 33 15.7952 33 21.8953C33 23.8953 32.4999 25.7953 31.4 27.4953C31.2 27.7953 31 27.8953 30.7 27.9954C27.6001 28.3953 24.9001 30.4953 23.6 33.4953C23.5 33.7953 23.4 33.9954 23.1 34.0953C23.1 34.1953 22.8999 34.1953 22.7 34.1953ZM14.4999 26.8952C17.7 27.0953 20.5999 28.5953 22.5999 31.1952C24.1999 28.5952 26.8999 26.6952 29.8999 26.0952C30.5998 24.7952 30.8998 23.3952 30.8998 21.8952C30.8998 16.8952 26.8999 12.8952 21.8998 12.8952C16.8998 12.8952 12.8998 16.8952 12.8998 21.8952C12.9999 23.6953 13.5 25.3952 14.4999 26.8952Z" fill="black"/>
</g>
<defs>
<clipPath id="clip0_132_128">
<rect width="60" height="60" fill="white"/>
</clipPath>
</defs>
</svg>
