<svg width="6" height="6" viewBox="0 0 6 6" fill="none" xmlns="http://www.w3.org/2000/svg">
<path d="M3 5.78276C1.5569 5.78276 0 4.87759 0 2.89138C0 0.905172 1.5569 0 3 0C3.80172 0 4.54138 0.263793 5.08966 0.744828C5.68448 1.27241 6 2.01724 6 2.89138C6 3.76552 5.68448 4.50517 5.08966 5.03276C4.54138 5.51379 3.79655 5.78276 3 5.78276Z" fill="url(#paint0_radial_1_34)"/>
<path d="M5.47707 1.17259C5.75276 1.61742 5.89655 2.14708 5.89655 2.73621C5.89655 3.61035 5.58103 4.35001 4.9862 4.87759C4.43793 5.35863 3.6931 5.62759 2.89655 5.62759C1.96241 5.62759 0.982756 5.24742 0.40448 4.44104C0.961032 5.35449 2.00793 5.78276 3 5.78276C3.79655 5.78276 4.54138 5.5138 5.08965 5.03276C5.68448 4.50518 6 3.76552 6 2.89139C6 2.23242 5.82051 1.6469 5.47707 1.17259Z" fill="#EB8F00"/>
<path d="M3.04138 3.94655C2.8562 3.94655 2.67258 3.91552 2.49827 3.85345C2.28362 3.77949 2.05034 3.8938 1.97638 4.10793C1.93448 4.22897 1.95155 4.36242 2.02241 4.46897C2.24482 4.81035 2.59655 4.99655 3.04138 4.99655C3.4862 4.99655 3.83793 4.81035 4.06034 4.46897C4.18603 4.28018 4.13431 4.02517 3.94551 3.89949C3.83896 3.82862 3.70551 3.81155 3.58448 3.85345C3.41017 3.91552 3.22655 3.94655 3.04138 3.94655Z" fill="#422B0D"/>
<path opacity="0.8" d="M1.47931 4.25171C1.97923 4.25171 2.38449 3.86961 2.38449 3.39826C2.38449 2.92692 1.97923 2.54482 1.47931 2.54482C0.979402 2.54482 0.574142 2.92692 0.574142 3.39826C0.574142 3.86961 0.979402 4.25171 1.47931 4.25171Z" fill="url(#paint1_radial_1_34)"/>
<path opacity="0.8" d="M4.60345 4.25171C5.10336 4.25171 5.50862 3.86961 5.50862 3.39826C5.50862 2.92692 5.10336 2.54482 4.60345 2.54482C4.10353 2.54482 3.69827 2.92692 3.69827 3.39826C3.69827 3.86961 4.10353 4.25171 4.60345 4.25171Z" fill="url(#paint2_radial_1_34)"/>
<path d="M5.27535 1.41569C4.8507 1.29621 4.5388 1.64328 4.5388 1.64328C4.5388 1.64328 4.50259 1.24966 4.13949 1.12604C3.70397 0.976553 3.24415 1.21448 3.21673 1.83155C3.1857 2.53448 4.1157 3.45724 4.1157 3.45724C4.1157 3.45724 5.27018 3.1469 5.64828 2.48897C5.95604 1.95362 5.59656 1.50569 5.27535 1.41569Z" fill="#F44336"/>
<path d="M5.27534 1.41569C5.2231 1.40172 5.16931 1.39551 5.11551 1.39655C5.26758 1.49845 5.3881 1.64069 5.4631 1.80724C5.53603 1.98258 5.55517 2.20914 5.41655 2.47965C5.11603 3.06776 4.19068 3.43189 4.12344 3.45724C4.20775 3.43345 5.28672 3.1231 5.65034 2.49051C5.95603 1.95362 5.59655 1.50569 5.27534 1.41569Z" fill="#C62828"/>
<path d="M4.53827 1.70689C4.53517 1.6531 4.52689 1.59931 4.51448 1.54655C4.48448 1.39448 4.39034 1.26258 4.25586 1.18448C4.16379 1.13069 4.06189 1.09655 3.95638 1.08362C3.95638 1.08362 4.11155 1.13069 4.22224 1.34534C4.27862 1.4581 4.31224 1.5812 4.32051 1.70689C4.32 1.75293 4.32827 1.79793 4.34482 1.84086C4.36344 1.88379 4.40896 1.90914 4.45551 1.90189C4.52638 1.88379 4.54189 1.79534 4.53827 1.70689Z" fill="#C62828"/>
<path d="M3.53275 1.46016C3.62947 1.34016 3.78826 1.22585 3.94033 1.33137C4.02102 1.38775 4.02206 1.54758 3.92326 1.61947C3.75671 1.74154 3.74895 1.82171 3.73033 1.88895C3.70757 1.96913 3.69309 2.06482 3.62016 2.10516C3.54723 2.14551 3.48309 2.10516 3.44481 1.98982C3.37964 1.80982 3.41275 1.60913 3.53275 1.46016Z" fill="#FF847A"/>
<path d="M1.81655 1.11569C1.39707 1.25173 1.32983 1.71362 1.32983 1.71362C1.32983 1.71362 1.08155 1.40328 0.709137 1.50362C0.264826 1.62052 0.0139643 2.07362 0.331033 2.60173C0.698275 3.2069 1.9831 3.45776 1.9831 3.45776C1.9831 3.45776 2.7719 2.55983 2.72224 1.80259C2.68138 1.18604 2.13362 1.01276 1.81655 1.11569Z" fill="#F44336"/>
<path d="M1.81656 1.11568C1.76536 1.13223 1.71622 1.15602 1.67122 1.18602C1.85432 1.18654 2.03329 1.23827 2.18846 1.33551C2.34674 1.43895 2.48794 1.61895 2.52312 1.92154C2.59915 2.57792 2.03018 3.39361 1.98622 3.45309C2.04363 3.38689 2.76932 2.53033 2.72174 1.80206C2.68139 1.18602 2.13363 1.01275 1.81656 1.11568Z" fill="#C62828"/>
<path d="M1.3655 1.76794C1.33344 1.72397 1.29723 1.68363 1.25688 1.64742C1.14826 1.53673 0.997746 1.47777 0.84309 1.48604C0.737056 1.49225 0.633091 1.51966 0.537918 1.56777C0.537918 1.56777 0.693091 1.5207 0.904125 1.63863C1.0143 1.70225 1.10999 1.78759 1.18654 1.88897C1.21137 1.92777 1.24344 1.96087 1.28119 1.98725C1.3205 2.01259 1.37223 2.00794 1.40688 1.97639C1.45292 1.92053 1.41723 1.8388 1.3655 1.76794Z" fill="#C62828"/>
<path d="M0.393101 2.1207C0.39517 2.07725 0.402929 2.03432 0.41586 1.99294C0.437067 1.90605 0.498619 1.83415 0.58086 1.79949C0.659998 1.77467 0.769653 1.79225 0.812067 1.87139C0.849825 1.94174 0.822412 2.02656 0.801722 2.10415C0.783101 2.19311 0.772756 2.28415 0.770688 2.37518C0.771205 2.44967 0.711722 2.51018 0.637239 2.51122C0.566894 2.51122 0.512067 2.45018 0.472756 2.39174C0.417929 2.31208 0.389998 2.21743 0.393101 2.1207Z" fill="#FF847A"/>
<defs>
<radialGradient id="paint0_radial_1_34" cx="0" cy="0" r="1" gradientUnits="userSpaceOnUse" gradientTransform="translate(3 2.89138) scale(2.94619)">
<stop offset="0.5" stop-color="#FDE030"/>
<stop offset="0.92" stop-color="#F7C02B"/>
<stop offset="1" stop-color="#F4A223"/>
</radialGradient>
<radialGradient id="paint1_radial_1_34" cx="0" cy="0" r="1" gradientUnits="userSpaceOnUse" gradientTransform="translate(1.47932 3.00571) scale(0.986476 0.885816)">
<stop stop-color="#ED7770"/>
<stop offset="0.9" stop-color="#ED7770" stop-opacity="0"/>
</radialGradient>
<radialGradient id="paint2_radial_1_34" cx="0" cy="0" r="1" gradientUnits="userSpaceOnUse" gradientTransform="translate(6.07862 130.375) scale(1.00655)">
<stop stop-color="#ED7770"/>
<stop offset="0.9" stop-color="#ED7770" stop-opacity="0"/>
</radialGradient>
</defs>
</svg>
