<svg width="26" height="22" viewBox="0 0 26 22" fill="none" xmlns="http://www.w3.org/2000/svg">
<path d="M25.3331 11.7676C25.3312 13.3841 25.317 14.7581 25.2112 15.8855C25.0885 17.1939 24.8369 18.287 24.2739 19.195C24.0256 19.5954 23.7205 19.9541 23.349 20.2767C22.2946 21.1923 20.9513 21.6071 19.249 21.8058C17.5858 22 15.4542 22 12.7343 22H12.599C9.8791 22 7.74752 22 6.08437 21.8058C4.38205 21.6071 3.03876 21.1923 1.98441 20.2767C1.0497 19.4649 0.566998 18.4547 0.310308 17.2014C0.058153 15.9702 0.0120208 14.4385 0.00243217 12.5364C1.71495e-07 12.0526 1.90645e-07 11.5409 1.90645e-07 11.001V10.9413C-1.2476e-05 8.57923 -2.5028e-05 6.72812 0.22358 5.28381C0.452454 3.80548 0.930063 2.63894 1.98441 1.72333C3.03876 0.80771 4.38205 0.392946 6.08437 0.194187C7.56341 0.0214983 9.46638 0.00239136 11.7825 0.00029036C12.2706 -0.000160639 12.6667 0.343622 12.6667 0.767462C12.6667 1.19131 12.2705 1.53474 11.7824 1.53519C9.43349 1.53735 7.68551 1.55593 6.31987 1.71537C4.81354 1.89125 3.9054 2.22575 3.23418 2.80865C2.56296 3.39155 2.17778 4.18019 1.97525 5.48832C1.76932 6.81854 1.76744 8.56648 1.76744 11C1.76744 11.2972 1.76744 11.5845 1.76785 11.8628L2.94748 10.9666C4.02122 10.1506 5.63952 10.1974 6.64838 11.0735L11.703 15.463C12.5128 16.1663 13.7874 16.2621 14.7244 15.6903L15.0757 15.4758C16.424 14.653 18.2481 14.7484 19.473 15.7057L22.8081 18.3123C23.1438 17.7001 23.3431 16.8957 23.4495 15.7609C23.5499 14.6917 23.5637 13.393 23.5656 11.7677C23.5661 11.3439 23.9615 11 24.4496 11C24.9376 11 25.3336 11.3438 25.3331 11.7676Z" fill="white"/>
<path fill-rule="evenodd" clip-rule="evenodd" d="M19.6333 0C16.9463 0 15.6028 -6.5565e-08 14.768 0.724909C13.9333 1.44982 13.9333 2.61654 13.9333 4.94999C13.9333 7.28344 13.9333 8.45016 14.768 9.17508C15.6028 9.89998 16.9463 9.89998 19.6333 9.89998C22.3203 9.89998 23.6638 9.89998 24.4986 9.17508C25.3333 8.45016 25.3333 7.28344 25.3333 4.94999C25.3333 2.61654 25.3333 1.44982 24.4986 0.724909C23.6638 -6.5565e-08 22.3203 0 19.6333 0ZM22.205 6.08335L20.305 7.73335C19.934 8.05552 19.3326 8.05552 18.9616 7.73335L17.0616 6.08335C16.6906 5.76117 16.6906 5.2388 17.0616 4.91663C17.4326 4.59445 18.034 4.59445 18.405 4.91663L18.6833 5.15826V2.74999C18.6833 2.29436 19.1086 1.925 19.6333 1.925C20.1579 1.925 20.5833 2.29436 20.5833 2.74999V5.15826L20.8616 4.91663C21.2326 4.59445 21.834 4.59445 22.205 4.91663C22.576 5.2388 22.576 5.76117 22.205 6.08335Z" fill="white"/>
</svg>
