<svg width="34" height="33" viewBox="0 0 34 33" fill="none" xmlns="http://www.w3.org/2000/svg">
<path d="M15.4167 24.3748C15.4167 23.7018 14.857 23.1561 14.1667 23.1561C13.4764 23.1561 12.9167 23.7018 12.9167 24.3748C12.9167 25.0481 13.4764 25.5936 14.1667 25.5936C14.857 25.5936 15.4167 25.0481 15.4167 24.3748Z" fill="#1C274C"/>
<path fill-rule="evenodd" clip-rule="evenodd" d="M11.1207 9.00574H22.2127C27.8373 9.00574 30.6497 9.00574 32.2295 10.6093C33.8092 12.2129 33.4375 14.6905 32.6942 19.6454L31.9892 24.3443C31.4062 28.23 31.1148 30.1728 29.6195 31.3363C28.1242 32.4998 25.9187 32.4998 21.5077 32.4998H11.8256C7.41467 32.4998 5.20922 32.4998 3.7139 31.3363C2.21858 30.1728 1.9271 28.23 1.34413 24.3443L0.639184 19.6454C-0.104199 14.6905 -0.475883 12.2129 1.10387 10.6093C2.68362 9.00574 5.49597 9.00574 11.1207 9.00574ZM17.9167 13.8123C17.9167 13.1393 17.357 12.5937 16.6667 12.5937C15.9763 12.5937 15.4167 13.1393 15.4167 13.8123V20.9268C15.0257 20.792 14.605 20.7186 14.1667 20.7186C12.0956 20.7186 10.4167 22.3556 10.4167 24.3748C10.4167 26.3942 12.0956 28.0311 14.1667 28.0311C16.2377 28.0311 17.9167 26.3942 17.9167 24.3748V18.3945C19.0337 19.2779 20.4362 19.9061 21.6667 19.9061C22.357 19.9061 22.9167 19.3606 22.9167 18.6873C22.9167 18.0143 22.357 17.4686 21.6667 17.4686C21.1577 17.4686 20.1908 17.1134 19.3058 16.3478C18.4423 15.601 17.9167 14.6877 17.9167 13.8123Z" fill="#1C274C"/>
<path opacity="0.4" d="M10.8493 1.18509e-05H22.4829C22.8702 -8.56491e-05 23.1674 -0.000150556 23.427 0.0246144C25.2734 0.200716 26.7847 1.28306 27.4255 2.74101H5.90662C6.54747 1.28306 8.05872 0.200716 9.90508 0.0246144C10.1648 -0.000150556 10.4618 -8.56491e-05 10.8493 1.18509e-05Z" fill="#1C274C"/>
<path opacity="0.7" d="M7.1837 4.42432C4.866 4.42432 2.96555 5.78891 2.33134 7.59922C2.31812 7.63696 2.30545 7.6749 2.29333 7.71301C2.95692 7.51708 3.64752 7.38908 4.34664 7.3017C6.14725 7.07662 8.42282 7.07674 11.0662 7.07688H22.553C25.1964 7.07674 27.472 7.07662 29.2725 7.3017C29.9717 7.38908 30.6624 7.51708 31.3259 7.71301C31.3139 7.6749 31.301 7.63696 31.2879 7.59922C30.6537 5.78891 28.7532 4.42432 26.4355 4.42432H7.1837Z" fill="#1C274C"/>
</svg>
