<svg width="32" height="28" viewBox="0 0 32 28" fill="none" xmlns="http://www.w3.org/2000/svg">
<path d="M31.833 14.977C31.8306 17.0344 31.8128 18.7832 31.6799 20.218C31.5257 21.8832 31.2096 23.2745 30.5021 24.4301C30.1901 24.9397 29.8067 25.3962 29.3398 25.8068C28.0149 26.972 26.327 27.5 24.1879 27.753C22.0979 28.0001 19.4194 28.0001 16.0017 28.0001H15.8317C12.4139 28.0001 9.73537 28.0001 7.64549 27.753C5.50639 27.5 3.81844 26.972 2.49357 25.8068C1.31903 24.7736 0.712478 23.4879 0.389927 21.8927C0.0730738 20.3258 0.0151051 18.3763 0.00305622 15.9554C2.15497e-07 15.3397 2.39561e-07 14.6884 2.39561e-07 14.0013V13.9253C-1.56771e-05 10.9191 -3.14496e-05 8.56312 0.280945 6.7249C0.568544 4.84339 1.1687 3.3587 2.49357 2.19337C3.81844 1.02804 5.50639 0.500156 7.64549 0.24719C9.50402 0.0274045 11.8953 0.00308655 14.8057 0.000412551C15.419 -0.000161448 15.9167 0.43738 15.9167 0.976814C15.9167 1.51626 15.4188 1.95336 14.8055 1.95393C11.8539 1.95667 9.65745 1.98032 7.94141 2.18325C6.04859 2.4071 4.90744 2.83282 4.064 3.57469C3.22056 4.31657 2.73655 5.3203 2.48206 6.98519C2.22329 8.67819 2.22093 10.9029 2.22093 14.0001C2.22093 14.3783 2.22093 14.744 2.22144 15.0982L3.70375 13.9575C5.05299 12.919 7.0865 12.9786 8.35421 14.0936L14.7057 19.6803C15.7233 20.5753 17.325 20.6972 18.5023 19.9695L18.9439 19.6965C20.638 18.6493 22.9302 18.7707 24.4693 19.9891L28.6602 23.3067C29.082 22.5275 29.3325 21.5036 29.4662 20.0594C29.5923 18.6986 29.6096 17.0458 29.612 14.9771C29.6126 14.4377 30.1096 14.0001 30.7228 14.0001C31.3361 14.0001 31.8337 14.4376 31.833 14.977Z" fill="white"/>
<path fill-rule="evenodd" clip-rule="evenodd" d="M24.6709 0C21.2945 0 19.6062 -8.34465e-08 18.5573 0.922613C17.5084 1.84523 17.5084 3.33015 17.5084 6.3C17.5084 9.26984 17.5084 10.7548 18.5573 11.6774C19.6062 12.6 21.2945 12.6 24.6709 12.6C28.0473 12.6 29.7355 12.6 30.7845 11.6774C31.8334 10.7548 31.8334 9.26984 31.8334 6.3C31.8334 3.33015 31.8334 1.84523 30.7845 0.922613C29.7355 -8.34465e-08 28.0473 0 24.6709 0ZM27.9024 7.74246L25.5149 9.84246C25.0487 10.2525 24.293 10.2525 23.8268 9.84246L21.4393 7.74246C20.9731 7.33241 20.9731 6.66758 21.4393 6.25753C21.9055 5.84749 22.6612 5.84749 23.1274 6.25753L23.4771 6.56507V3.5C23.4771 2.9201 24.0116 2.45 24.6709 2.45C25.3301 2.45 25.8646 2.9201 25.8646 3.5V6.56507L26.2143 6.25753C26.6805 5.84749 27.4362 5.84749 27.9024 6.25753C28.3686 6.66758 28.3686 7.33241 27.9024 7.74246Z" fill="white"/>
</svg>
