<svg width="27" height="27" viewBox="0 0 27 27" fill="none" xmlns="http://www.w3.org/2000/svg">
<g id="valentines-heart" clip-path="url(#clip0_1_741)">
<g id="Group 4">
<g id="Group 3">
<g id="Group 2">
<g id="Group">
<g id="Icons 18">
<path id="Vector" d="M26.6539 9.20984C26.6539 5.28621 23.4731 2.10559 19.5495 2.10559C16.9874 2.10559 14.7499 3.46626 13.5 5.49972C12.2501 3.46626 10.0117 2.10559 7.44969 2.10559C3.52606 2.10559 0.346191 5.28621 0.346191 9.20984C0.346191 11.346 1.29279 13.2572 2.7847 14.5586L12.8517 24.626C13.0236 24.7979 13.2568 24.8945 13.5 24.8945C13.7432 24.8945 13.9763 24.7979 14.1483 24.626L24.2152 14.5586C25.7072 13.2572 26.6539 11.346 26.6539 9.20984Z" fill="white"/>
</g>
</g>
</g>
</g>
</g>
</g>
<defs>
<clipPath id="clip0_1_741">
<rect width="26.3077" height="26.3077" fill="white" transform="translate(0.346191 0.346191)"/>
</clipPath>
</defs>
</svg>
