<svg width="60" height="60" viewBox="0 0 60 60" fill="none" xmlns="http://www.w3.org/2000/svg">
<path fill-rule="evenodd" clip-rule="evenodd" d="M55 16V46H47.4953L47.5 53.5L35 46H25V16H55ZM35 6V13.5H22.5L22.5 37.5L12.5 43.5L12.5047 36H5V6H35ZM42.7359 25.5455L38.5822 37H36.1958L32.0346 25.5455H34.4284L37.3293 34.3601H37.4486L40.3421 25.5455H42.7359ZM44.8315 37V25.5455H47.0612V37H44.8315ZM45.9575 23.7781C45.5697 23.7781 45.2366 23.6488 44.9582 23.3903C44.6848 23.1268 44.5481 22.8136 44.5481 22.4506C44.5481 22.0827 44.6848 21.7695 44.9582 21.511C45.2366 21.2475 45.5697 21.1158 45.9575 21.1158C46.3453 21.1158 46.6759 21.2475 46.9494 21.511C47.2278 21.7695 47.367 22.0827 47.367 22.4506C47.367 22.8136 47.2278 23.1268 46.9494 23.3903C46.6759 23.6488 46.3453 23.7781 45.9575 23.7781ZM12.8573 27.5078C13.6726 27.9901 14.6446 28.2312 15.7731 28.2312C16.6084 28.2312 17.3516 28.1044 18.0029 27.8509C18.6591 27.5923 19.2035 27.2319 19.6361 26.7695C20.0736 26.3022 20.3768 25.7578 20.5459 25.1364L18.4354 24.756C18.3012 25.114 18.1073 25.4148 17.8537 25.6584C17.6002 25.902 17.2994 26.0859 16.9514 26.2102C16.6034 26.3295 16.2181 26.3892 15.7955 26.3892C15.1442 26.3892 14.575 26.25 14.0878 25.9716C13.6005 25.6882 13.2202 25.2781 12.9468 24.7411C12.6968 24.2412 12.5632 23.6421 12.546 22.9439H20.6875V22.1534C20.6875 21.1143 20.5483 20.2319 20.2699 19.506C19.9915 18.7752 19.6112 18.1811 19.129 17.7237C18.6467 17.2663 18.1023 16.9308 17.4958 16.717C16.8892 16.5032 16.2628 16.3963 15.6165 16.3963C14.5526 16.3963 13.6229 16.6474 12.8275 17.1495C12.037 17.6516 11.4205 18.3501 10.978 19.245C10.5405 20.1399 10.3218 21.174 10.3218 22.3473C10.3218 23.5355 10.5405 24.5721 10.978 25.457C11.4205 26.337 12.0469 27.0206 12.8573 27.5078ZM12.5497 21.2734C12.5765 20.7811 12.6989 20.3212 12.9169 19.8938C13.1705 19.4016 13.5285 19.0039 13.9908 18.7006C14.4581 18.3924 15.005 18.2383 15.6314 18.2383C16.2081 18.2383 16.7103 18.37 17.1378 18.6335C17.5704 18.897 17.9059 19.2575 18.1446 19.7148C18.3832 20.1673 18.5025 20.6868 18.5025 21.2734H12.5497Z" fill="black"/>
</svg>
