<svg width="51" height="48" viewBox="0 0 51 48" fill="none" xmlns="http://www.w3.org/2000/svg">
<path fill-rule="evenodd" clip-rule="evenodd" d="M50.0613 10.4172V40.4172H42.5566L42.5613 47.9172L30.0613 40.4172H20.0613V10.4172H50.0613ZM30.0613 0.417236V7.91724H17.5613L17.5612 31.9172L7.56128 37.9172L7.56601 30.4172H0.0612793V0.417236H30.0613ZM36.5299 17.9172H33.6082L28.0613 32.9172H30.6971L32.2321 28.6194H37.8637L39.4092 32.9172H42.2038L36.5299 17.9172ZM35.0479 20.4261C35.2763 21.1918 35.5183 21.9467 35.7738 22.6907L35.8841 23.009L37.1438 26.5658H32.9413L34.201 23.009C34.5539 22.028 34.8362 21.1671 35.0479 20.4261ZM13.7758 4.46479H11.2758L11.2758 5.71471L5.02584 5.71479V8.21479L14.3577 8.2149C14.2077 10.344 13.6676 12.2618 12.7379 13.9798C11.7286 12.5916 11.0332 11.0398 10.6477 9.31503L10.623 9.2023L8.17872 9.72728L8.36211 10.4905C8.91873 12.5797 9.87904 14.4624 11.2385 16.1276C9.76404 17.7186 7.65115 18.8346 4.86096 19.4706L4.75468 19.4946L5.29701 21.935L6.04325 21.7554C8.95546 20.9989 11.2797 19.7215 12.986 17.9194C14.1818 18.9508 15.6638 19.9258 17.4313 20.8494L17.5612 20.9169L17.5612 18.0701C16.3517 17.3734 15.3318 16.657 14.5012 15.9238C15.8798 13.6836 16.6638 11.1509 16.8547 8.34274L16.863 8.21491L17.5612 8.21479V5.71471H13.7758L13.7758 4.46479Z" fill="black"/>
</svg>
