<svg width="219" height="219" viewBox="0 0 219 219" fill="none" xmlns="http://www.w3.org/2000/svg">
<g clip-path="url(#clip0_239_91)">
<path d="M145.345 57.5491C132.383 28.349 116.914 4.64733 116.262 3.65242C114.768 1.37345 112.225 0 109.5 0C106.774 0 104.232 1.37345 102.738 3.65242C102.086 4.64691 86.617 28.3498 73.6554 57.5499C55.5417 98.3567 51.6472 128.841 62.0805 148.157C70.1758 163.144 86.0742 170.759 109.34 170.793C109.393 170.794 109.444 170.793 109.5 170.795C109.587 170.795 109.672 170.794 109.758 170.791C132.969 170.736 148.837 163.12 156.92 148.154C167.353 128.839 163.458 98.3545 145.345 57.5491Z" fill="#91DC5A"/>
<path d="M109.492 0C106.769 0.00256641 104.231 1.37517 102.738 3.652C102.086 4.64691 86.617 28.3494 73.6554 57.5495C55.5417 98.3562 51.6472 128.841 62.0805 148.156C69.0598 161.077 81.8444 168.514 100.145 170.342C100.331 170.338 100.456 170.329 100.491 170.311C30.9012 139.534 109.5 0.0012832 109.5 0.0012832C109.5 0.0012832 109.495 0.000427734 109.492 0Z" fill="#6DC82A"/>
<path d="M119.004 46.8686C117.789 46.8686 116.616 46.2052 116.022 45.0499C113.062 39.29 109.888 33.4262 106.587 27.6223C105.672 26.014 106.234 23.9698 107.842 23.0549C109.45 22.14 111.494 22.702 112.409 24.3103C115.757 30.1964 118.978 36.144 121.981 41.9877C122.826 43.6328 122.178 45.6525 120.533 46.4978C120.042 46.7493 119.52 46.8686 119.004 46.8686Z" fill="#6DC82A"/>
<path d="M128.821 67.3497C127.536 67.3497 126.31 66.6063 125.757 65.3552C125.121 63.9197 124.459 62.4526 123.79 60.9932C123.018 59.3122 123.755 57.3236 125.436 56.552C127.117 55.7799 129.106 56.5174 129.877 58.1979C130.559 59.6847 131.234 61.1805 131.882 62.6438C132.631 64.3355 131.867 66.3133 130.175 67.0623C129.735 67.2573 129.274 67.3497 128.821 67.3497Z" fill="#6DC82A"/>
<path d="M129.012 117.516L112.849 133.679V112.337L133.749 91.4368C135.057 90.1288 135.057 88.0081 133.749 86.7005C132.441 85.3925 130.32 85.3925 129.013 86.7005L112.85 102.864V67.1877C112.85 65.3378 111.35 63.8381 109.5 63.8381C107.65 63.8381 106.151 65.3378 106.151 67.1877V103.312L89.5393 86.7005C88.2313 85.3925 86.1106 85.3925 84.803 86.7005C83.495 88.0086 83.495 90.1293 84.803 91.4368L106.151 112.785V134.128L89.5398 117.516C88.2318 116.208 86.111 116.208 84.8035 117.516C83.4954 118.824 83.4954 120.945 84.8035 122.253L106.152 143.601V215.652C106.152 217.502 107.651 219.001 109.501 219.001C111.35 219.001 112.85 217.502 112.85 215.652V143.153L133.75 122.253C135.058 120.945 135.058 118.824 133.75 117.517C132.442 116.208 130.32 116.208 129.012 117.516Z" fill="#5EAC24"/>
</g>
<defs>
<clipPath id="clip0_239_91">
<rect width="219" height="219" fill="white"/>
</clipPath>
</defs>
</svg>
