<svg width="60" height="60" viewBox="0 0 60 60" fill="none" xmlns="http://www.w3.org/2000/svg">
<path d="M58.9069 22.8328C57.6379 22.8694 56.0303 23.0306 54.2262 23.5016C52.1415 24.0456 50.471 24.8264 49.2586 25.5077C49.8209 20.8714 49.8318 19.5849 49.8318 19.5849C49.8544 16.9415 49.3185 14.9487 48.9722 13.6622C47.2499 7.26033 42.6511 2.59498 41.1388 1.14795C39.6436 2.45916 37.7825 4.36615 36.0756 6.97521C33.8714 10.3455 32.8018 13.5456 32.2543 15.7638C32.2155 15.7235 28.883 11.7037 25.2807 8.98123C22.8243 7.12522 20.6648 6.19064 18.6892 5.35111C15.5446 4.01494 9.89965 2.10432 2.09777 2.00963C2.18637 9.83236 4.10145 15.4909 5.43984 18.641C6.27937 20.6163 7.21371 22.776 9.06984 25.2323C11.7925 28.8345 15.8121 32.1672 15.8524 32.2062C13.6342 32.7535 10.434 33.8229 7.06359 36.0273C4.45453 37.7341 2.54754 39.5951 1.23633 41.0903C2.68359 42.6027 7.34871 47.2016 13.7507 48.9237C15.0374 49.2698 17.0299 49.8057 19.6734 49.7835C19.6734 49.7835 20.9602 49.7727 25.5962 49.2103C24.9146 50.4226 24.1341 52.0933 23.5901 54.1778C23.1191 55.982 22.958 57.5896 22.9213 58.8587C24.71 58.8804 30.5517 58.7216 35.1491 54.4642C37.6806 52.1202 38.8455 49.4494 39.3523 48.2549C40.33 45.9511 40.6002 43.9888 40.8482 40.7564C44.0545 40.5094 46.0093 40.2371 48.3029 39.2639C49.4972 38.7571 52.1679 37.592 54.5122 35.0605C58.7699 30.4631 58.9287 24.6219 58.9069 22.8328Z" fill="#FFD92D"/>
<path d="M28.301 54.9455C28.3396 53.6025 28.5103 51.9013 29.0086 49.9922C29.5841 47.7865 30.4103 46.0185 31.1314 44.7358C26.2256 45.3308 24.864 45.3423 24.864 45.3423C22.0665 45.366 19.9582 44.7988 18.5966 44.4325C12.5604 42.8087 7.98574 38.7702 5.97645 36.7766C3.91687 38.2652 2.35793 39.8115 1.23633 41.0903C2.68359 42.6027 7.34871 47.2016 13.7507 48.9237C15.0374 49.2699 17.0299 49.8058 19.6734 49.7835C19.6734 49.7835 20.9602 49.7727 25.5962 49.2103C24.9146 50.4226 24.1341 52.0934 23.5901 54.1778C23.1191 55.982 22.958 57.5896 22.9213 58.8587C24.71 58.8804 30.5517 58.7216 35.1491 54.4642C35.478 54.1596 35.7827 53.8494 36.0671 53.5378C32.6837 54.8909 29.5535 54.9606 28.301 54.9455Z" fill="#FFE571"/>
<path d="M54.226 23.5017C52.1414 24.0457 50.4705 24.8263 49.2581 25.5076C49.8204 20.8718 49.8312 19.5849 49.8312 19.5849C49.8535 16.9414 49.3181 14.9486 48.9719 13.6622C47.2496 7.26033 42.6508 2.59498 41.1382 1.14783C39.643 2.45904 37.7823 4.36591 36.075 6.97509C33.8708 10.3455 32.8012 13.5457 32.2541 15.7637C32.2152 15.7234 28.8827 11.704 25.2805 8.98123C22.824 7.12509 20.6642 6.19076 18.6889 5.35123C15.5449 4.01552 9.89855 2.10841 2.09961 2.01279C2.18914 9.83248 4.10152 15.4917 5.43992 18.641C5.65461 19.1478 5.87844 19.6673 6.11961 20.2001C5.99164 19.0161 5.90188 17.7688 5.88676 16.4278C5.88711 16.4286 5.88664 16.4281 5.88676 16.4278C12.3095 16.5067 16.9595 18.0772 19.5493 19.1774C21.176 19.8689 22.9542 20.6383 24.9771 22.1669C25.9313 22.888 26.8624 23.7197 27.6877 24.5172C29.0614 25.8445 31.3394 25.4306 32.1259 23.6898C32.5818 22.6803 33.1521 21.6085 33.8676 20.5148C34.5288 19.5038 35.2181 18.621 35.891 17.8569C37.0232 16.5715 39.0296 16.6383 40.1243 17.9559C41.6887 19.8392 43.5772 22.6354 44.488 26.0217C44.7734 27.0814 45.2144 28.7224 45.1964 30.8995C45.1964 30.8995 45.1954 31.0084 45.1788 31.2819C45.0617 33.2235 46.8829 34.6358 48.7633 34.1383C48.7805 34.1339 48.7975 34.1293 48.8148 34.1251C50.3011 33.7371 51.6245 33.6045 52.6699 33.5742C52.6776 34.2082 52.6395 35.4764 52.3355 36.9986C53.058 36.4615 53.7989 35.831 54.5122 35.0607C58.7696 30.4633 58.9284 24.622 58.9066 22.8329C57.6377 22.8696 56.0302 23.0307 54.226 23.5017Z" fill="#FFA81E"/>
<path d="M9.85057 41.9874C9.63108 41.9787 9.41194 41.9068 9.22151 41.7674C9.16678 41.7274 8.85366 41.4852 8.72674 41.106C8.79389 41.3368 8.92795 41.5361 9.09049 41.6671L9.05241 41.6372C8.55284 41.2507 8.46096 40.5325 8.84756 40.0327C9.23405 39.5331 9.95253 39.4414 10.4521 39.8279C10.4758 39.8461 10.4985 39.8647 10.5199 39.8831L10.5722 39.9214C11.0821 40.2946 11.193 41.0103 10.8197 41.5199C10.5864 41.839 10.2183 42.0019 9.85057 41.9874Z" fill="white"/>
<path d="M20.3263 46.0813C20.3044 46.0804 20.2822 46.079 20.26 46.0768C17.0357 45.7634 14.7514 44.8941 11.8954 43.4987C11.3278 43.2213 11.0924 42.5363 11.3698 41.9689C11.6472 41.4012 12.3322 41.166 12.8996 41.4432C15.5834 42.7544 17.5865 43.5185 20.4814 43.8001C21.1102 43.8611 21.5703 44.4205 21.5091 45.0493C21.4502 45.6555 20.9276 46.1053 20.3263 46.0813Z" fill="white"/>
<path d="M15.5593 8.37899C16.1179 8.58869 16.6765 8.81264 17.2672 9.06365C17.4061 9.12267 17.5501 9.15063 17.6919 9.15063C18.1148 9.15063 18.5169 8.90218 18.6926 8.48857C18.9274 7.93599 18.6699 7.29765 18.1174 7.06301C17.498 6.79986 16.9112 6.56455 16.3233 6.34382C15.7613 6.13279 15.1347 6.41744 14.9237 6.97949C14.7126 7.54165 14.9973 8.16796 15.5593 8.37899Z" fill="#1C2042"/>
<path d="M41.5753 42.5227C43.2482 42.2995 44.693 41.9559 46.2592 41.2912C47.3097 40.8458 50.0998 39.6624 52.5333 37.0347C56.4969 32.7547 57.0322 27.4464 56.9986 24.663C56.9952 24.3716 56.8748 24.0938 56.6645 23.8922C56.4543 23.6904 56.1745 23.5838 55.8804 23.5897C54.2968 23.6353 52.7183 23.8608 51.1889 24.26C50.117 24.5397 49.0682 24.9047 48.0532 25.3505C48.3625 22.5309 48.3738 21.6421 48.3743 21.5987C48.3968 18.9354 47.8477 16.8967 47.5198 15.6787C45.9475 9.83365 41.9941 5.40384 39.7776 3.28337C39.3703 2.89393 38.7332 2.88023 38.3095 3.25163C36.3851 4.93945 34.7013 6.87729 33.3051 9.01146C31.9337 11.1088 30.8538 13.3683 30.0829 15.7503C28.7654 14.3139 26.7397 12.2535 24.6122 10.6454C24.1331 10.2834 23.4515 10.3781 23.0897 10.8571C22.7277 11.3361 22.8224 12.0177 23.3014 12.3796C26.2095 14.578 28.9489 17.7115 29.7192 18.6197C29.7674 18.6766 29.7961 18.7072 29.8009 18.7121C30.0755 18.9973 30.4836 19.1106 30.8656 19.0079C31.248 18.9053 31.5443 18.603 31.6391 18.2186C32.3461 15.3543 33.5188 12.6569 35.1248 10.2014C36.229 8.51355 37.5282 6.95858 38.9956 5.56777C41.0959 7.72053 44.1417 11.4876 45.4211 16.2436C45.7395 17.4264 46.2209 19.2138 46.2009 21.5773C46.2008 21.5894 46.178 22.8519 45.6642 27.0872C45.6148 27.4939 45.7984 27.8936 46.1388 28.1215C46.4791 28.3495 46.9186 28.3663 47.2759 28.1657C48.6817 27.3757 50.1832 26.7692 51.7385 26.3634C52.7415 26.1015 53.7679 25.9233 54.8027 25.8302C54.6691 28.427 53.912 32.3471 50.939 35.5577C48.8224 37.8432 46.344 38.8943 45.4108 39.29C43.7052 40.0138 42.2135 40.3019 39.9281 40.5176C39.9377 40.3819 39.9473 40.2447 39.9571 40.1051C40.081 38.3388 40.1 35.0399 40.0941 32.5835C40.0904 31.0522 40.0768 29.7374 40.069 29.0902C40.0637 28.6361 40.0581 28.2663 40.0537 28.0097C40.0515 27.8923 40.0499 27.7819 40.0437 27.6773C40.0437 27.6666 40.0437 27.6616 40.0437 27.6598C40.0437 27.6646 40.0436 27.6693 40.0434 27.6742C40.0197 27.2726 39.9334 26.9625 39.5405 26.7128C39.2038 26.4987 38.7765 26.4864 38.4282 26.6807C37.8641 26.9951 37.868 27.515 37.8704 27.8257C37.8712 27.9541 37.8734 28.1504 37.8767 28.4225C37.8773 28.4706 37.8809 28.5181 37.8876 28.5644C37.9163 30.637 37.9622 35.8629 37.844 38.8843L34.4463 35.5716C34.0164 35.1525 33.3282 35.1611 32.9093 35.5912C32.4902 36.021 32.4991 36.7092 32.9289 37.1281L36.6623 40.7683C33.8569 40.9321 27.8285 40.8802 25.5647 40.8489C25.5184 40.8422 25.471 40.8387 25.4229 40.838C25.1508 40.8347 24.9545 40.8325 24.8261 40.8316C24.513 40.8301 23.9954 40.8257 23.6811 41.3895C23.4868 41.7379 23.499 42.165 23.7132 42.5018C23.9629 42.8947 24.2732 42.9809 24.6746 43.0047C24.662 43.005 24.66 43.005 24.678 43.005C24.7825 43.0111 24.893 43.013 25.0102 43.015C25.2669 43.0194 25.6366 43.0248 26.0907 43.0303C26.738 43.0381 28.0526 43.0516 29.584 43.0554C29.8356 43.0559 30.0956 43.0564 30.3625 43.0564C32.6999 43.0564 35.5203 43.0297 37.1056 42.9185C37.2596 42.9078 37.4107 42.897 37.5602 42.8866C37.3443 45.1953 37.0568 46.695 36.3291 48.4106C35.9332 49.3438 34.8814 51.8229 32.5966 53.9384C29.386 56.9117 25.4661 57.6688 22.8694 57.8025C22.9624 56.7669 23.1409 55.7403 23.4025 54.7384C23.8088 53.1822 24.4151 51.6806 25.2048 50.2757C25.4055 49.9186 25.3884 49.479 25.1606 49.1386C24.9327 48.798 24.5323 48.6146 24.1262 48.6641C19.8909 49.1778 18.6287 49.2007 18.6196 49.2008C16.2495 49.222 14.4661 48.7393 13.2826 48.4209C8.52734 47.1417 4.76003 44.0958 2.60704 41.9954C3.99797 40.5283 5.55271 39.229 7.24087 38.1246C9.6961 36.5189 12.3936 35.3461 15.258 34.6391C15.6419 34.5444 15.9441 34.2486 16.047 33.8668C16.15 33.4848 16.0375 33.0772 15.7531 32.8022C15.7482 32.7976 15.7167 32.7682 15.6584 32.7185C14.75 31.9477 11.6156 29.207 9.41947 26.3014C7.70002 24.0257 6.85154 22.0292 6.10273 20.2678C4.23985 15.8838 3.20996 11.0613 3.03579 5.91812C5.3115 5.9993 7.54767 6.26011 9.69832 6.6961C10.2865 6.81481 10.8605 6.43507 10.9797 5.84684C11.0989 5.2584 10.7186 4.68477 10.1304 4.5655C7.49177 4.03062 4.73463 3.74564 1.93474 3.71869C1.6453 3.7217 1.36211 3.83039 1.15575 4.03697C0.949282 4.24343 0.834578 4.52407 0.837362 4.81606C0.8936 10.6677 1.99175 16.1525 4.10131 21.1178C4.85958 22.902 5.80317 25.1223 7.68432 27.6118C9.2914 29.7383 11.3526 31.7648 12.7891 33.0827C10.4068 33.8535 8.14725 34.9335 6.05006 36.3049C3.91545 37.7013 1.97761 39.3849 0.290234 41.3092C-0.0811632 41.7328 -0.0675769 42.37 0.322084 42.7773C2.44266 44.994 6.87303 48.9475 12.717 50.5196C13.9359 50.8477 15.9823 51.3964 18.6373 51.3741C18.6808 51.3736 19.5693 51.3622 22.389 51.053C21.9434 52.0673 21.5783 53.116 21.2985 54.1883C20.8997 55.7164 20.6742 57.2947 20.6282 58.8799C20.6198 59.1712 20.7286 59.4536 20.9305 59.664C21.1324 59.8742 21.4103 59.9947 21.7015 59.9982C21.7785 59.9992 21.857 59.9997 21.9377 59.9997C24.7773 59.9996 29.9117 59.3868 34.0731 55.5327C36.6999 53.1007 37.8839 50.3097 38.3297 49.2591C39.1076 47.4257 39.4457 45.7584 39.6656 43.6967L52.9717 56.6701C53.1829 56.8762 53.4568 56.9788 53.7303 56.9788C54.013 56.9788 54.2957 56.8691 54.5087 56.6505C54.9279 56.2207 54.919 55.5325 54.4891 55.1136L41.5753 42.5227Z" fill="#1C2042"/>
<path d="M26.7001 30.6241C26.9829 30.6241 27.2655 30.5144 27.4785 30.2958C27.8977 29.866 27.8888 29.1779 27.4589 28.7589L24.4708 25.8454C24.041 25.4261 23.3529 25.4349 22.9339 25.865C22.5148 26.2949 22.5237 26.983 22.9535 27.4019L25.9416 30.3154C26.1527 30.5215 26.4265 30.6241 26.7001 30.6241Z" fill="#1C2042"/>
</svg>
