<svg width="50" height="50" viewBox="0 0 50 50" fill="none" xmlns="http://www.w3.org/2000/svg">
<g clip-path="url(#clip0_60_69)">
<path d="M38.751 35.2044C38.2118 34.8174 37.4795 34.8411 36.9667 35.2629C30.7632 40.3615 21.5717 40.0061 15.7826 34.2173C10.0016 28.4364 9.63037 19.2465 14.737 13.0334C15.1585 12.5206 15.1824 11.7884 14.7954 11.2491C14.4083 10.7098 13.7071 10.4983 13.0863 10.7335C10.3959 11.7529 7.99326 13.3084 5.94531 15.3565C-1.97422 23.2753 -1.98965 36.1207 5.94521 44.0551C13.8636 51.9737 26.7095 51.9896 34.6437 44.0551C36.6916 42.0071 38.2469 39.6045 39.2666 36.9136C39.5019 36.2929 39.2903 35.5915 38.751 35.2044V35.2044ZM32.5723 41.9835C25.8352 48.7208 14.84 48.807 8.01699 41.9834C1.30078 35.2678 1.17314 24.2713 8.01699 17.4281C8.5165 16.9286 9.04062 16.4633 9.58789 16.0332C8.10576 19.7061 6.28056 28.8587 13.7111 36.2889C21.1324 43.71 30.2768 41.9013 33.9677 40.4118C33.5375 40.9594 33.072 41.4838 32.5723 41.9835V41.9835Z" fill="#526774"/>
<path d="M16.6933 21.683C17.0113 21.7891 18.6898 22.1948 20.1205 23.6034C21.5292 25.0341 21.935 26.7126 22.0409 27.0307C22.2398 27.6295 22.8 28.0337 23.4311 28.0337C24.0621 28.0337 24.6223 27.6295 24.8212 27.0307C24.9272 26.7126 25.333 25.0341 26.7416 23.6034C28.1723 22.1947 29.8508 21.7891 30.1688 21.683C30.7677 21.4841 31.1719 20.9239 31.1719 20.2929C31.1719 19.6618 30.7677 19.1017 30.1688 18.9027C29.8508 18.7967 28.1723 18.3909 26.7416 16.9823C25.3329 15.5517 24.9271 13.8732 24.8212 13.5551C24.6223 12.9563 24.0621 12.5521 23.4311 12.5521C22.8 12.5521 22.2398 12.9563 22.0409 13.5551C21.9349 13.8732 21.5291 15.5517 20.1205 16.9823C18.6898 18.391 17.0113 18.7967 16.6933 18.9027C16.0944 19.1017 15.6902 19.6618 15.6902 20.2929C15.6902 20.9239 16.0944 21.4841 16.6933 21.683V21.683ZM23.4311 17.5338C24.1602 18.624 25.1 19.5639 26.19 20.2929C25.0996 21.0221 24.1602 21.9616 23.431 23.0521C22.7019 21.9618 21.7622 21.0221 20.6721 20.293C21.7625 19.5638 22.702 18.6242 23.4311 17.5338V17.5338Z" fill="#526875"/>
<path d="M29.2454 9.13096C29.5635 9.23701 31.242 9.64277 32.6727 11.0514C34.0814 12.482 34.487 14.1605 34.5931 14.4786C34.792 15.0774 35.3522 15.4816 35.9832 15.4816C36.6143 15.4816 37.1744 15.0774 37.3734 14.4786C37.4794 14.1605 37.8852 12.482 39.2938 11.0514C40.7244 9.64268 42.403 9.23701 42.721 9.13096C43.3198 8.93203 43.724 8.37188 43.724 7.74082C43.724 7.10977 43.3198 6.54961 42.721 6.35068C42.403 6.24463 40.7244 5.83887 39.2938 4.43027C37.8851 2.99961 37.4793 1.32109 37.3734 1.00303C37.1744 0.404199 36.6143 0 35.9833 0C35.3524 0 34.7921 0.404199 34.5932 1.00303C34.4871 1.32109 34.0815 2.99961 32.6728 4.43027C31.2421 5.83897 29.5636 6.24463 29.2455 6.35068C28.6467 6.54961 28.2425 7.10977 28.2425 7.74082C28.2425 8.37188 28.6466 8.93203 29.2454 9.13096ZM35.9833 4.98164C36.7124 6.07188 37.6523 7.01172 38.7423 7.74072C37.6519 8.46992 36.7124 9.40947 35.9832 10.4999C35.2542 9.40967 34.3145 8.46992 33.2243 7.74082C34.3147 7.01172 35.2541 6.07207 35.9833 4.98164Z" fill="#516774"/>
<path d="M48.997 23.6098C48.6789 23.5038 47.0004 23.098 45.5697 21.6894C44.161 20.2588 43.7553 18.5802 43.6493 18.2622C43.4504 17.6634 42.8902 17.2592 42.2592 17.2592C41.6281 17.2592 41.068 17.6634 40.869 18.2622C40.763 18.5802 40.3573 20.2588 38.9486 21.6894C37.518 23.0981 35.8394 23.5038 35.5214 23.6098C34.9225 23.8088 34.5183 24.3689 34.5183 25C34.5183 25.631 34.9225 26.1912 35.5214 26.3901C35.8394 26.4962 37.518 26.9019 38.9486 28.3105C40.3573 29.7412 40.763 31.4197 40.869 31.7378C41.068 32.3366 41.6281 32.7408 42.2592 32.7408C42.8902 32.7408 43.4504 32.3366 43.6493 31.7378C43.7554 31.4197 44.1611 29.7412 45.5697 28.3105C47.0004 26.9018 48.6789 26.4962 48.997 26.3901C49.5958 26.1912 50 25.631 50 25C50 24.3689 49.5958 23.8088 48.997 23.6098ZM42.2591 27.7591C41.5301 26.6688 40.5903 25.7291 39.5002 25C40.5906 24.2708 41.5301 23.3312 42.2592 22.2408C42.9883 23.331 43.9281 24.2709 45.0182 24.9999C43.9277 25.7291 42.9883 26.6686 42.2591 27.7591Z" fill="#516774"/>
</g>
<defs>
<clipPath id="clip0_60_69">
<rect width="50" height="50" fill="white"/>
</clipPath>
</defs>
</svg>
