<svg width="43" height="59" viewBox="0 0 43 59" fill="none" xmlns="http://www.w3.org/2000/svg">
<path d="M41.5137 16.3564C41.3955 16.0328 39.9715 15.2714 34.8623 15.6376L33.4828 15.7383L33.8606 14.4073C35.5791 8.36226 35.027 6.45963 34.6995 6.26976C34.3314 6.05663 32.1982 6.63401 27.3312 11.8381L26.0428 13.2157L25.6746 11.3673C24.1188 3.58825 22.2743 0.96875 21.6718 0.96875C21.0692 0.96875 19.2247 3.58825 17.6689 11.3693L17.3007 13.2176L16.0123 11.8401C11.1356 6.62626 9.00436 6.06244 8.64399 6.27169C8.31655 6.46157 7.76436 8.3642 9.48293 14.4092L9.86074 15.7403L8.4793 15.6395C3.37592 15.2733 1.94798 16.0328 1.82979 16.3564C1.27761 17.8754 9.22136 23.6007 14.7491 26.1563H28.5944C34.1221 23.6026 42.0659 17.8754 41.5137 16.3564Z" fill="#C3CC6A"/>
<path d="M41.5137 16.3564C41.4827 16.2731 41.3626 16.1627 41.1223 16.0483C36.1933 19.873 29.3249 22.2813 21.6718 22.2813C14.0186 22.2813 7.15017 19.873 2.22117 16.0483C1.98092 16.1627 1.86079 16.275 1.82979 16.3564C1.27761 17.8754 9.22136 23.6007 14.7491 26.1563H28.5944C34.1221 23.6027 42.0659 17.8754 41.5137 16.3564Z" fill="#6F9B45"/>
<path d="M36.2029 51.3438H34.1375L36.3172 33.9063H38.1404V26.1562H5.20288V33.9063H7.02607L9.20576 51.3438H7.14038V57.1563H36.2029V51.3438Z" fill="#AF9480"/>
<path d="M35.7244 38.75H7.64806L7.02612 33.9062H36.3173L35.7244 38.75Z" fill="#716558"/>
<path d="M42.4243 16.027C42.0349 14.9556 39.9772 14.5739 37.3558 14.5739C36.544 14.5739 35.6799 14.6107 34.7925 14.6746C35.9841 10.4877 36.6525 6.28332 35.1839 5.43469C34.9959 5.32619 34.7789 5.27582 34.5367 5.27582C32.7174 5.27582 29.4624 8.14138 26.624 11.1813C25.6029 6.07213 23.77 0 21.6717 0C19.5734 0 17.7405 6.07213 16.7175 11.1794C13.8772 8.14138 10.6241 5.27388 8.80478 5.27388C8.56259 5.27388 8.34559 5.32426 8.15765 5.43276C6.68903 6.28138 7.3594 10.4858 8.55097 14.6727C7.66359 14.6088 6.79753 14.572 5.98765 14.572C3.36621 14.572 1.30858 14.9536 0.919146 16.0251C0.138333 18.1699 6.2124 22.477 10.876 25.1856H4.23421V34.8731H6.17171L8.10922 50.3731H6.17171V58.1231H37.1717V50.3731H35.2342L37.1717 34.8731H39.1092V25.1856H32.4675C37.1311 22.4789 43.2051 18.1718 42.4243 16.027ZM35.2342 56.1876H8.10922V52.3126H35.2342V56.1876ZM33.2812 50.3751H10.0622L8.12472 34.875H35.2187L33.2812 50.3751ZM37.1717 32.9375H6.17171V27.125H37.1717V32.9375ZM28.4491 25.1875H14.8963C10.4168 23.2016 4.30784 18.6213 3.01552 16.7981C3.48634 16.6664 4.3834 16.5114 5.98765 16.5114C6.71809 16.5114 7.53378 16.5443 8.41147 16.6063L11.1705 16.8059L10.4129 14.1438C9.25622 10.075 9.20197 8.16463 9.27947 7.36832C10.1746 7.78101 12.1295 9.1082 15.3012 12.5027L17.8762 15.2578L18.6163 11.5591C19.6877 6.20969 20.9297 3.23563 21.6717 2.21456C22.4138 3.23563 23.6557 6.20969 24.7252 11.5572L25.4654 15.2559L28.0403 12.5008C31.2159 9.10239 33.1708 7.77713 34.0621 7.36445C34.1415 8.15882 34.0872 10.0692 32.9286 14.1418L32.173 16.804L34.932 16.6044C35.8116 16.5405 36.6273 16.5095 37.3558 16.5095C38.9601 16.5095 39.8552 16.6645 40.3279 16.7962C39.0376 18.6213 32.9286 23.2016 28.4491 25.1875Z" fill="#231F20"/>
</svg>
