<svg width="62" height="62" viewBox="0 0 62 62" fill="none" xmlns="http://www.w3.org/2000/svg">
<path d="M52.1975 16.9017C52.0754 16.5673 50.6039 15.7805 45.3244 16.1589L43.8989 16.263L44.2893 14.8876C46.0651 8.64106 45.4945 6.67501 45.1562 6.4788C44.7758 6.25858 42.5715 6.8552 37.5423 12.2328L36.2109 13.6563L35.8305 11.7463C34.2228 3.70792 32.3168 1.0011 31.6942 1.0011C31.0715 1.0011 29.1655 3.70792 27.5579 11.7483L27.1775 13.6583L25.8461 12.2348C20.8068 6.84719 18.6045 6.26458 18.2321 6.48081C17.8938 6.67701 17.3232 8.64306 19.099 14.8896L19.4895 16.265L18.062 16.1609C12.7885 15.7825 11.3129 16.5673 11.1908 16.9017C10.6202 18.4713 18.8288 24.3875 24.5407 27.0282H38.8476C44.5596 24.3895 52.7681 18.4713 52.1975 16.9017Z" fill="#C3CC6A"/>
<path d="M52.1975 16.9016C52.1655 16.8155 52.0414 16.7014 51.7931 16.5833C46.6998 20.5354 39.6024 23.024 31.6942 23.024C23.7859 23.024 16.6885 20.5354 11.5952 16.5833C11.347 16.7014 11.2228 16.8175 11.1908 16.9016C10.6202 18.4712 18.8288 24.3874 24.5407 27.0281H38.8476C44.5596 24.3894 52.7681 18.4712 52.1975 16.9016Z" fill="#6F9B45"/>
<path d="M46.7096 53.0553H44.5754L46.8278 35.0365H48.7117V27.0282H14.6763V35.0365H16.5602L18.8126 53.0553H16.6784V59.0616H46.7096V53.0553Z" fill="#AF9480"/>
<path d="M46.2152 40.0417H17.203L16.5603 35.0365H46.8278L46.2152 40.0417Z" fill="#716558"/>
<path d="M53.1385 16.5613C52.736 15.4541 50.6098 15.0597 47.901 15.0597C47.0621 15.0597 46.1692 15.0977 45.2523 15.1638C46.4835 10.8373 47.1743 6.49276 45.6567 5.61585C45.4625 5.50373 45.2382 5.45168 44.988 5.45168C43.108 5.45168 39.7445 8.41276 36.8115 11.554C35.7564 6.27454 33.8624 0 31.6941 0C29.5259 0 27.6319 6.27454 26.5748 11.552C23.6397 8.41276 20.2782 5.44968 18.3983 5.44968C18.148 5.44968 17.9238 5.50173 17.7296 5.61385C16.212 6.49076 16.9047 10.8353 18.136 15.1618C17.2191 15.0957 16.3241 15.0577 15.4872 15.0577C12.7784 15.0577 10.6522 15.4521 10.2498 16.5592C9.44295 18.7756 15.7195 23.2262 20.5385 26.0251H13.6754V36.0355H15.6774L17.6795 52.0522H15.6774V60.0606H47.7108V52.0522H45.7087L47.7108 36.0355H49.7129V26.0251H42.8498C47.6688 23.2282 53.9453 18.7776 53.1385 16.5613ZM45.7087 58.0605H17.6795V54.0563H45.7087V58.0605ZM43.6906 52.0542H19.6976L17.6955 36.0375H45.6927L43.6906 52.0542ZM47.7108 34.0355H15.6774V28.0292H47.7108V34.0355ZM38.6974 26.0271H24.6928C20.064 23.975 13.7514 19.242 12.416 17.3581C12.9026 17.2219 13.8295 17.0618 15.4872 17.0618C16.242 17.0618 17.0849 17.0958 17.9919 17.1599L20.8428 17.3661L20.06 14.6152C18.8648 10.4108 18.8087 8.43679 18.8888 7.61393C19.8138 8.04038 21.8339 9.4118 25.1113 12.9195L27.772 15.7664L28.5368 11.9444C29.644 6.41668 30.9273 3.34348 31.6941 2.28838C32.4609 3.34348 33.7443 6.41668 34.8494 11.9424L35.6142 15.7644L38.275 12.9175C41.5564 9.4058 43.5765 8.03637 44.4975 7.60993C44.5796 8.43078 44.5235 10.4048 43.3262 14.6132L42.5454 17.3641L45.3964 17.1579C46.3053 17.0918 47.1482 17.0598 47.901 17.0598C49.5587 17.0598 50.4837 17.2199 50.9722 17.3561C49.6388 19.242 43.3262 23.975 38.6974 26.0271Z" fill="#231F20"/>
</svg>
