<svg width="46" height="56" viewBox="0 0 46 56" fill="none" xmlns="http://www.w3.org/2000/svg">
<path d="M23 0.5L0.5 10.5V25.5C0.5 39.375 10.1 52.35 23 55.5C35.9 52.35 45.5 39.375 45.5 25.5V10.5L23 0.5ZM23 10.5C24.9891 10.5 26.8968 11.2902 28.3033 12.6967C29.7098 14.1032 30.5 16.0109 30.5 18C30.5 19.9891 29.7098 21.8968 28.3033 23.3033C26.8968 24.7098 24.9891 25.5 23 25.5C21.0109 25.5 19.1032 24.7098 17.6967 23.3033C16.2902 21.8968 15.5 19.9891 15.5 18C15.5 16.0109 16.2902 14.1032 17.6967 12.6967C19.1032 11.2902 21.0109 10.5 23 10.5ZM35.825 40.5C32.8 45.125 28.275 48.6 23 50.3C17.725 48.6 13.2 45.125 10.175 40.5C9.325 39.25 8.6 38 8 36.675C8 32.55 14.775 29.175 23 29.175C31.225 29.175 38 32.475 38 36.675C37.4 38 36.675 39.25 35.825 40.5Z" fill="black"/>
</svg>
