<svg width="38" height="38" viewBox="0 0 38 38" fill="none" xmlns="http://www.w3.org/2000/svg">
<path d="M14.4605 3.03123C14.4605 2.75773 14.57 2.49543 14.7647 2.30204C14.9595 2.10865 15.2236 2 15.4991 2H21.7301C22.0055 2 22.2697 2.10865 22.4644 2.30204C22.6592 2.49543 22.7686 2.75773 22.7686 3.03123C22.7686 3.30473 22.6592 3.56703 22.4644 3.76042C22.2697 3.95382 22.0055 4.06246 21.7301 4.06246H20.6916V6.2693C23.5201 6.67473 26.1656 7.89879 28.2975 9.78855C30.4295 11.6783 31.9534 14.15 32.6789 16.8948C33.4044 19.6396 33.2994 22.5359 32.3768 25.2217C31.4543 27.9076 29.7552 30.264 27.4918 31.9965L28.74 33.2381C28.935 33.4314 29.0447 33.6938 29.0449 33.9675C29.0451 34.2411 28.9358 34.5036 28.7411 34.6973C28.5464 34.8909 28.2821 34.9998 28.0066 35C27.731 35.0002 27.4666 34.8917 27.2716 34.6983L25.7221 33.1597C23.5516 34.3695 21.1036 35.0031 18.6146 34.9994C16.1255 35.0031 13.6775 34.3695 11.507 33.1597L9.95758 34.6983C9.86102 34.794 9.74642 34.87 9.62031 34.9217C9.49421 34.9735 9.35907 35.0001 9.22262 35C9.08616 34.9999 8.95106 34.9731 8.82503 34.9212C8.699 34.8692 8.58451 34.7932 8.48809 34.6973C8.39167 34.6014 8.31521 34.4876 8.26308 34.3624C8.21095 34.2372 8.18417 34.103 8.18426 33.9675C8.18446 33.6938 8.29412 33.4314 8.48912 33.2381L9.73949 31.9965C7.47613 30.2641 5.777 27.9079 4.85435 25.2222C3.9317 22.5365 3.82644 19.6404 4.5517 16.8956C5.27697 14.1509 6.80062 11.6791 8.93231 9.78925C11.064 7.89935 13.7092 6.67506 16.5376 6.2693V4.06246H15.4991C15.2236 4.06246 14.9595 3.95382 14.7647 3.76042C14.57 3.56703 14.4605 3.30473 14.4605 3.03123ZM19.6531 13.3436C19.6531 13.0701 19.5437 12.8078 19.3489 12.6144C19.1542 12.421 18.89 12.3123 18.6146 12.3123C18.3392 12.3123 18.075 12.421 17.8802 12.6144C17.6855 12.8078 17.5761 13.0701 17.5761 13.3436V20.2776L14.608 25.1862C14.4662 25.4209 14.424 25.7019 14.4908 25.9674C14.5576 26.2329 14.7279 26.4613 14.9642 26.6021C15.2005 26.743 15.4835 26.7848 15.7509 26.7185C16.0183 26.6522 16.2483 26.4831 16.3901 26.2484L19.5056 21.0922C19.6022 20.9321 19.6532 20.7489 19.6531 20.5622V13.3436ZM3.78468 13.1105C3.24727 12.6463 2.81178 12.0773 2.5053 11.4388C2.19881 10.8004 2.02788 10.1061 2.00313 9.39929C1.97839 8.69244 2.10036 7.98809 2.36146 7.33005C2.62256 6.672 3.01721 6.07434 3.52086 5.57421C4.02451 5.07409 4.6264 4.68221 5.28909 4.42294C5.95177 4.16367 6.66109 4.04255 7.37293 4.06712C8.08477 4.09169 8.78391 4.26143 9.42687 4.56576C10.0698 4.8701 10.6429 5.30254 11.1103 5.83618C7.95315 7.42788 5.38761 9.97544 3.78468 13.1105ZM26.1188 5.83618C26.5863 5.30254 27.1593 4.8701 27.8023 4.56576C28.4453 4.26143 29.1444 4.09169 29.8562 4.06712C30.5681 4.04255 31.2774 4.16367 31.9401 4.42294C32.6028 4.68221 33.2047 5.07409 33.7083 5.57421C34.212 6.07434 34.6066 6.672 34.8677 7.33005C35.1288 7.98809 35.2508 8.69244 35.226 9.39929C35.2013 10.1061 35.0304 10.8004 34.7239 11.4388C34.4174 12.0773 33.9819 12.6463 33.4445 13.1105C31.8416 9.97544 29.276 7.42788 26.1188 5.83618Z" fill="white"/>
</svg>
