<svg width="6" height="6" viewBox="0 0 6 6" fill="none" xmlns="http://www.w3.org/2000/svg">
<path d="M3 5.78276C1.5569 5.78276 0 4.87759 0 2.89138C0 0.905172 1.5569 0 3 0C3.80172 0 4.54138 0.263793 5.08966 0.744828C5.68448 1.27241 6 2.01724 6 2.89138C6 3.76552 5.68448 4.50517 5.08966 5.03276C4.54138 5.51379 3.79655 5.78276 3 5.78276Z" fill="url(#paint0_radial_1_19)"/>
<path d="M5.47707 1.17259C5.75276 1.61742 5.89655 2.14708 5.89655 2.73621C5.89655 3.61035 5.58103 4.35001 4.9862 4.87759C4.43793 5.35863 3.6931 5.62759 2.89655 5.62759C1.96241 5.62759 0.982756 5.24742 0.40448 4.44104C0.961032 5.35449 2.00793 5.78276 3 5.78276C3.79655 5.78276 4.54138 5.5138 5.08965 5.03276C5.68448 4.50518 6 3.76552 6 2.89139C6 2.23242 5.82051 1.6469 5.47707 1.17259Z" fill="#EB8F00"/>
<path d="M3.38276 4.86207C3.35327 4.86207 3.32379 4.85587 3.29689 4.84345C3.10655 4.75914 2.88982 4.75759 2.69896 4.84035C2.59707 4.89156 2.47241 4.85018 2.4212 4.74828C2.37 4.64639 2.41138 4.52173 2.51327 4.47052C2.81689 4.33294 3.16396 4.3319 3.46862 4.4669C3.57258 4.51449 3.61862 4.63708 3.57103 4.74104C3.53741 4.81501 3.46396 4.86207 3.38276 4.86207Z" fill="#422B0D"/>
<path d="M1.93449 2.10516C2.43001 2.10672 2.83087 2.50965 2.82932 3.00516C2.82777 3.50068 2.42483 3.90154 1.92932 3.89999C1.4338 3.89844 1.03294 3.49551 1.03449 2.99999C1.03759 2.50499 1.43949 2.10568 1.93449 2.10516Z" fill="white"/>
<path d="M1.91896 3.68276C2.35888 3.68276 2.71551 3.32614 2.71551 2.88621C2.71551 2.44629 2.35888 2.08966 1.91896 2.08966C1.47903 2.08966 1.12241 2.44629 1.12241 2.88621C1.12241 3.32614 1.47903 3.68276 1.91896 3.68276Z" fill="#422B0D"/>
<path d="M2.27934 3.28236C2.33623 3.23461 2.34661 3.15333 2.30253 3.10082C2.25846 3.04831 2.17661 3.04446 2.11972 3.09221C2.06284 3.13996 2.05246 3.22123 2.09653 3.27374C2.14061 3.32625 2.22245 3.33011 2.27934 3.28236Z" fill="white"/>
<path d="M1.93716 2.94146C2.1434 2.78794 2.20966 2.52788 2.08514 2.3606C1.96062 2.19331 1.69249 2.18214 1.48625 2.33566C1.28 2.48917 1.21375 2.74923 1.33826 2.91652C1.46278 3.0838 1.73092 3.09497 1.93716 2.94146Z" fill="white"/>
<path d="M4.15863 2.10516C4.65414 2.10672 5.05501 2.50965 5.05345 3.00516C5.0519 3.50068 4.64897 3.90154 4.15345 3.89999C3.65794 3.89844 3.25707 3.49551 3.25863 2.99999C3.26173 2.50499 3.66363 2.10568 4.15863 2.10516Z" fill="white"/>
<path d="M4.14309 3.68276C4.58302 3.68276 4.93965 3.32614 4.93965 2.88621C4.93965 2.44629 4.58302 2.08966 4.14309 2.08966C3.70317 2.08966 3.34654 2.44629 3.34654 2.88621C3.34654 3.32614 3.70317 3.68276 4.14309 3.68276Z" fill="#422B0D"/>
<path d="M4.50763 3.2792C4.56451 3.23145 4.5749 3.15018 4.53082 3.09767C4.48674 3.04516 4.4049 3.0413 4.34801 3.08905C4.29113 3.1368 4.28074 3.21807 4.32482 3.27058C4.3689 3.32309 4.45074 3.32695 4.50763 3.2792Z" fill="white"/>
<path d="M4.16186 2.94182C4.3681 2.78831 4.43436 2.52825 4.30984 2.36096C4.18533 2.19368 3.91719 2.18251 3.71095 2.33602C3.5047 2.48954 3.43845 2.7496 3.56297 2.91688C3.68748 3.08417 3.95562 3.09534 4.16186 2.94182Z" fill="white"/>
<path d="M1.12759 1.69656C1.0138 1.71725 1.00863 1.88277 1.13276 1.88794C1.4069 1.89156 1.67173 1.78966 1.87242 1.60346C1.94897 1.53725 2.01363 1.45863 2.0638 1.3707C2.0938 1.32777 2.08345 1.2688 2.04052 1.2388C1.99759 1.2088 1.93863 1.21915 1.90863 1.26208L1.90345 1.26725C1.7007 1.4938 1.42708 1.64535 1.12759 1.69656Z" fill="#422B0D"/>
<path d="M4.08103 1.26208C4.05103 1.21915 3.99207 1.2088 3.94913 1.2388C3.9062 1.2688 3.89586 1.32777 3.92586 1.3707C3.97603 1.45863 4.04069 1.53725 4.11724 1.60346C4.31896 1.78811 4.58327 1.89001 4.85689 1.88794C4.9862 1.88277 4.97586 1.71725 4.86207 1.69656C4.55896 1.64691 4.28327 1.49328 4.08103 1.26208Z" fill="#422B0D"/>
<defs>
<radialGradient id="paint0_radial_1_19" cx="0" cy="0" r="1" gradientUnits="userSpaceOnUse" gradientTransform="translate(3 2.89138) scale(2.94619)">
<stop offset="0.5" stop-color="#FDE030"/>
<stop offset="0.92" stop-color="#F7C02B"/>
<stop offset="1" stop-color="#F4A223"/>
</radialGradient>
</defs>
</svg>
