<svg width="50" height="52" viewBox="0 0 50 52" fill="none" xmlns="http://www.w3.org/2000/svg">
<g clip-path="url(#clip0_60_9)">
<path d="M13.2146 10.6796L10.2688 7.61589C9.45626 6.7698 8.13542 6.7698 7.32292 7.61589C6.50938 8.46197 6.50938 9.83347 7.32292 10.6796L10.2688 13.7432C10.675 14.1668 11.2083 14.3781 11.7417 14.3781C12.275 14.3781 12.8083 14.1668 13.2146 13.7432C14.0281 12.8971 14.0281 11.5256 13.2146 10.6796Z" fill="#FFD835"/>
<path d="M6.25 23.8334H2.08333C0.933333 23.8334 0 24.804 0 26C0 27.196 0.933333 28.1667 2.08333 28.1667H6.25C7.4 28.1667 8.33333 27.196 8.33333 26C8.33333 24.804 7.4 23.8334 6.25 23.8334Z" fill="#FFD835"/>
<path d="M13.2146 38.2568C12.4021 37.4107 11.0813 37.4107 10.2688 38.2568L7.32292 41.3205C6.50938 42.1666 6.50938 43.5381 7.32292 44.3842C7.72917 44.8077 8.26251 45.019 8.79584 45.019C9.32918 45.019 9.86251 44.8077 10.2688 44.3842L13.2146 41.3205C14.0281 40.4744 14.0281 39.1029 13.2146 38.2568Z" fill="#FFD835"/>
<path d="M25 43.3334C23.85 43.3334 22.9167 44.304 22.9167 45.5V49.8334C22.9167 51.0294 23.85 52 25 52C26.15 52 27.0833 51.0294 27.0833 49.8334V45.5C27.0833 44.304 26.15 43.3334 25 43.3334Z" fill="#FFD835"/>
<path d="M42.6771 41.3205L39.7313 38.2568C38.9188 37.4107 37.5979 37.4107 36.7854 38.2568C35.9719 39.1029 35.9719 40.4744 36.7854 41.3205L39.7313 44.3842C40.1375 44.8077 40.6708 45.019 41.2042 45.019C41.7375 45.019 42.2708 44.8077 42.6771 44.3842C43.4906 43.5381 43.4906 42.1666 42.6771 41.3205Z" fill="#FFD835"/>
<path d="M47.9167 23.8334H43.75C42.6 23.8334 41.6667 24.804 41.6667 26C41.6667 27.196 42.6 28.1667 43.75 28.1667H47.9167C49.0667 28.1667 50 27.196 50 26C50 24.804 49.0667 23.8334 47.9167 23.8334Z" fill="#FFD835"/>
<path d="M42.6771 7.61589C41.8646 6.7698 40.5438 6.7698 39.7313 7.61589L36.7854 10.6796C35.9719 11.5256 35.9719 12.8971 36.7854 13.7432C37.1917 14.1668 37.725 14.3781 38.2583 14.3781C38.7917 14.3781 39.325 14.1668 39.7313 13.7432L42.6771 10.6796C43.4906 9.83347 43.4906 8.46197 42.6771 7.61589Z" fill="#FFD835"/>
<path d="M25 0C23.85 0 22.9167 0.970667 22.9167 2.16667V6.5C22.9167 7.696 23.85 8.66667 25 8.66667C26.15 8.66667 27.0833 7.696 27.0833 6.5V2.16667C27.0833 0.970667 26.15 0 25 0Z" fill="#FFD835"/>
<path d="M25 11.9166C17.5333 11.9166 11.4583 18.2346 11.4583 26C11.4583 33.7653 17.5333 40.0833 25 40.0833C32.4667 40.0833 38.5417 33.7653 38.5417 26C38.5417 18.2346 32.4667 11.9166 25 11.9166ZM25 35.75C19.8312 35.75 15.625 31.3755 15.625 26C15.625 20.6245 19.8312 16.25 25 16.25C30.1687 16.25 34.375 20.6245 34.375 26C34.375 31.3755 30.1687 35.75 25 35.75Z" fill="#FFD835"/>
</g>
<defs>
<clipPath id="clip0_60_9">
<rect width="50" height="52" fill="white"/>
</clipPath>
</defs>
</svg>
