<svg width="33" height="34" viewBox="0 0 33 34" fill="none" xmlns="http://www.w3.org/2000/svg">
<path d="M18.3439 2.46873V2.87936C18.3439 4.46186 17.6407 5.22311 16.1763 5.22311C14.712 5.22311 14.067 4.46186 14.067 2.87936V2.46873C14.067 0.944355 14.712 0.183105 16.1763 0.183105C17.6407 0.183105 18.3439 0.944355 18.3439 2.46873ZM22.6807 4.34373L22.9732 3.99123C23.8526 2.70123 24.9063 2.52686 26.0201 3.34623C27.192 4.16748 27.3682 5.27936 26.4888 6.56936L26.1364 6.86186C25.257 8.15186 24.2032 8.32623 23.0895 7.44873C21.9176 6.62748 21.8013 5.63186 22.6807 4.34373ZM9.4376 3.9931L9.67198 4.34561C10.5514 5.63561 10.4332 6.63123 9.31947 7.4506C8.1476 8.32998 7.03385 8.15373 6.15447 6.86373L5.9201 6.57123C5.04072 5.28123 5.15885 4.16936 6.2726 3.34811C7.44447 2.52686 8.55823 2.82123 9.4376 3.9931ZM16.1763 7.85936C21.1563 7.85936 25.2588 11.9619 25.2588 17C25.2588 21.98 21.1563 26.0244 16.1763 26.0244C11.1363 26.0244 7.09385 21.9819 7.09385 17C7.09385 11.96 11.1363 7.85936 16.1763 7.85936ZM3.05135 10.4375L3.46197 10.5556C4.98635 11.0244 5.4551 11.9037 5.04447 13.31C4.57572 14.7162 3.63822 15.1269 2.17385 14.6581L1.76322 14.54C0.29885 14.0712 -0.2299 13.1919 0.180725 11.7856C0.649475 10.3794 1.58697 9.96873 3.05135 10.4375ZM28.8907 10.5556L29.3013 10.4375C30.8257 9.96873 31.7632 10.3794 32.172 11.7856C32.5807 13.1919 32.1139 14.0712 30.5895 14.54L30.237 14.6581C28.7126 15.1269 27.7751 14.7162 27.3664 13.31C26.8976 11.9037 27.4245 11.0244 28.8907 10.5556ZM16.1763 22.04C18.9307 22.04 21.2163 19.7544 21.2163 17C21.2163 14.1875 18.9307 11.9019 16.1763 11.9019C13.3638 11.9019 11.0782 14.1875 11.0782 17C11.0782 19.7544 13.3638 22.04 16.1763 22.04ZM1.76135 19.4019L2.17197 19.2837C3.63635 18.815 4.57385 19.1656 5.0426 20.5737C5.45322 21.98 4.98447 22.8594 3.4601 23.3281L3.04947 23.4462C1.5851 23.915 0.6476 23.5644 0.17885 22.1562C-0.231775 20.75 0.296975 19.8706 1.76135 19.4019ZM30.2388 19.2856L30.5913 19.4037C32.1157 19.8725 32.5845 20.7519 32.1738 22.1581C31.7632 23.5644 30.8257 23.9169 29.3032 23.4481L28.8926 23.33C27.4282 22.8612 26.8995 21.9819 27.3682 20.5756C27.7788 19.1694 28.7163 18.8169 30.2388 19.2856ZM5.92197 27.4306L6.15635 27.0781C7.03572 25.7881 8.14948 25.6719 9.32135 26.4912C10.4351 27.3125 10.5513 28.3081 9.67385 29.5962L9.43947 29.9487C8.5601 31.2387 7.44635 31.355 6.27447 30.5356C5.16072 29.7144 5.04447 28.7187 5.92197 27.4306ZM26.1364 27.0781L26.4888 27.4306C27.3682 28.7206 27.192 29.7162 26.0201 30.5356C24.9063 31.3569 23.8526 31.2387 22.9732 29.9487L22.6807 29.5962C21.8013 28.3062 21.9195 27.3106 23.0913 26.4912C24.2051 25.67 25.257 25.7881 26.1364 27.0781ZM18.3439 31.0044V31.4731C18.3439 33.0556 17.6407 33.8169 16.1763 33.8169C14.712 33.8169 14.067 33.0556 14.067 31.4731V31.0044C14.067 29.4219 14.712 28.6606 16.1763 28.6606C17.6407 28.6606 18.3439 29.4219 18.3439 31.0044Z" fill="black"/>
</svg>
