<svg width="60" height="60" viewBox="0 0 60 60" fill="none" xmlns="http://www.w3.org/2000/svg">
<path d="M30.0028 43.5025C37.459 43.5025 43.5036 37.4579 43.5036 30.0017C43.5036 22.5454 37.459 16.5009 30.0028 16.5009C22.5465 16.5009 16.502 22.5454 16.502 30.0017C16.502 37.4579 22.5465 43.5025 30.0028 43.5025Z" fill="black"/>
<path fill-rule="evenodd" clip-rule="evenodd" d="M13.1258 29.9949C13.1258 28.1293 11.6163 26.6199 9.75082 26.6199H6.37499C4.50946 26.6199 3 28.1293 3 29.9949C3 31.8604 4.50946 33.3699 6.37499 33.3699H9.74998C11.6163 33.3699 13.1258 31.8604 13.1258 29.9949Z" fill="black"/>
<path fill-rule="evenodd" clip-rule="evenodd" d="M13.2975 41.9272L10.908 44.3175C9.58925 45.6355 9.58925 47.7718 10.908 49.0898C12.226 50.4077 14.3623 50.4077 15.6811 49.0898L18.0714 46.7003C19.3894 45.3823 19.3894 43.2451 18.0714 41.9272C16.7518 40.6084 14.6163 40.6084 13.2975 41.9272Z" fill="black"/>
<path fill-rule="evenodd" clip-rule="evenodd" d="M30.0024 46.8716C28.1369 46.8716 26.6274 48.381 26.6274 50.2466V53.6224C26.6274 55.4879 28.1369 56.9974 30.0024 56.9974C31.868 56.9974 33.3774 55.4879 33.3774 53.6224L33.374 50.2466C33.3774 48.381 31.8646 46.8716 30.0024 46.8716Z" fill="black"/>
<path fill-rule="evenodd" clip-rule="evenodd" d="M46.7044 41.9306C45.389 40.6093 43.2527 40.6093 41.9347 41.9272C40.6168 43.2452 40.6168 45.3824 41.9347 46.7003L44.3217 49.0864C45.6396 50.4111 47.776 50.4044 49.0939 49.0864C50.4119 47.7685 50.4152 45.6355 49.0939 44.3142L46.7044 41.9306Z" fill="black"/>
<path fill-rule="evenodd" clip-rule="evenodd" d="M53.6302 26.6199L50.2477 26.6266C48.3889 26.6199 46.8794 28.1293 46.8794 29.9949C46.8727 31.8604 48.3889 33.3699 50.2477 33.3699H53.6235C55.4958 33.3766 56.9985 31.8604 56.9985 29.9949C57.0019 28.1327 55.4958 26.6199 53.6302 26.6199Z" fill="black"/>
<path fill-rule="evenodd" clip-rule="evenodd" d="M46.7044 18.066L49.0906 15.6791C50.4186 14.3577 50.4085 12.2248 49.0906 10.906C47.7752 9.58382 45.6396 9.58382 44.3217 10.9026L41.9347 13.2955C40.6168 14.6075 40.6168 16.743 41.9347 18.0618C43.2459 19.3882 45.389 19.3814 46.7044 18.066Z" fill="black"/>
<path fill-rule="evenodd" clip-rule="evenodd" d="M30.0024 13.1182C31.8646 13.1317 33.3774 11.6088 33.3774 9.75V6.37501C33.3774 4.50274 31.868 3.00002 30.0024 3.00002C28.1369 2.99327 26.6274 4.50274 26.6274 6.36911L26.6342 9.75084C26.6274 11.6088 28.1369 13.1182 30.0024 13.1182Z" fill="black"/>
<path fill-rule="evenodd" clip-rule="evenodd" d="M13.3039 18.0627C14.616 19.3806 16.7456 19.3806 18.0677 18.0593C19.3958 16.7506 19.389 14.6084 18.0745 13.293L15.6875 10.9069C14.3628 9.58133 12.2332 9.59145 10.9144 10.9069C9.58555 12.2223 9.58555 14.3578 10.9043 15.6766L13.3039 18.0627Z" fill="black"/>
</svg>
