<svg width="38" height="38" viewBox="0 0 38 38" fill="none" xmlns="http://www.w3.org/2000/svg">
<path d="M6.33301 3.16663V12.6666H3.16634V3.16663H6.33301ZM3.16634 34.8333V25.3333H6.33301V34.8333H3.16634ZM7.91634 19C7.91634 20.7575 6.50717 22.1666 4.74967 22.1666C3.00801 22.1666 1.58301 20.7575 1.58301 19C1.58301 17.2583 3.00801 15.8333 4.74967 15.8333C6.50717 15.8333 7.91634 17.2583 7.91634 19ZM25.333 6.33329C32.3313 6.33329 37.9997 12.0016 37.9997 19C37.9997 25.9983 32.3313 31.6666 25.333 31.6666C19.633 31.6666 14.8197 27.8983 13.2205 22.7208L9.49967 19L13.2205 15.2791C14.8197 10.1016 19.633 6.33329 25.333 6.33329ZM23.7497 20.5833L30.9222 25.0008L32.1888 22.9583L26.1247 19.3166V11.0833H23.7497V20.5833Z" fill="white"/>
</svg>
