<svg width="67" height="67" viewBox="0 0 67 67" fill="none" xmlns="http://www.w3.org/2000/svg">
<path fill-rule="evenodd" clip-rule="evenodd" d="M61.4166 33.4999C61.4166 48.9177 48.9177 61.4166 33.4999 61.4166C18.082 61.4166 5.58325 48.9177 5.58325 33.4999C5.58325 18.082 18.082 5.58325 33.4999 5.58325C48.9177 5.58325 61.4166 18.082 61.4166 33.4999ZM41.8749 25.1249C41.8749 29.7504 38.1254 33.4999 33.4999 33.4999C28.8744 33.4999 25.1249 29.7504 25.1249 25.1249C25.1249 20.4995 28.8744 16.7499 33.4999 16.7499C38.1254 16.7499 41.8749 20.4995 41.8749 25.1249ZM33.4999 57.2291C38.4803 57.2291 43.1024 55.6948 46.9192 53.0728C48.6051 51.9149 49.3253 49.7089 48.3454 47.9139C46.3137 44.1928 42.1267 41.8749 33.4996 41.8749C24.8728 41.8749 20.6861 44.1926 18.6542 47.9139C17.6741 49.7089 18.3945 51.9146 20.0803 53.0726C23.8971 55.6945 28.5193 57.2291 33.4999 57.2291Z" fill="#1C274C"/>
</svg>
