<svg width="60" height="60" viewBox="0 0 60 60" fill="none" xmlns="http://www.w3.org/2000/svg">
<path fill-rule="evenodd" clip-rule="evenodd" d="M57.8333 29.9167C57.8333 45.3345 45.3345 57.8333 29.9167 57.8333C14.4987 57.8333 2 45.3345 2 29.9167C2 14.4987 14.4987 2 29.9167 2C45.3345 2 57.8333 14.4987 57.8333 29.9167ZM38.2917 21.5417C38.2917 26.1672 34.5422 29.9167 29.9167 29.9167C25.2912 29.9167 21.5417 26.1672 21.5417 21.5417C21.5417 16.9163 25.2912 13.1667 29.9167 13.1667C34.5422 13.1667 38.2917 16.9163 38.2917 21.5417ZM29.9167 53.6458C34.897 53.6458 39.5192 52.1115 43.3359 49.4896C45.0218 48.3316 45.7421 46.1256 44.7622 44.3306C42.7304 40.6096 38.5435 38.2917 29.9164 38.2917C21.2896 38.2917 17.1028 40.6093 15.071 44.3306C14.0908 46.1256 14.8112 48.3313 16.497 49.4893C20.3138 52.1113 24.9361 53.6458 29.9167 53.6458Z" fill="black"/>
</svg>
