<svg width="60" height="60" viewBox="0 0 60 60" fill="none" xmlns="http://www.w3.org/2000/svg">
<g clip-path="url(#clip0_132_105)">
<path d="M36.5096 20.8424C39.7358 14.722 38.8209 7.89962 34.4662 5.60409C30.1114 3.30856 23.9658 6.40919 20.7396 12.5296C17.5133 18.6499 18.4282 25.4723 22.7829 27.7679C27.1377 30.0634 33.2833 26.9628 36.5096 20.8424Z" fill="#FF8D36"/>
<path opacity="0.2" d="M34.4677 5.60423C33.9471 5.32978 33.4008 5.13337 32.8371 5.00916C35.0925 8.14568 35.1225 13.4013 32.5807 18.223C29.7401 23.6119 24.6366 26.6586 20.4846 25.7435C21.0921 26.5884 21.8596 27.2811 22.7837 27.7683C27.1384 30.0638 33.284 26.9632 36.5104 20.8428C39.7368 14.7225 38.8222 7.89982 34.4677 5.60423Z" fill="black"/>
<path d="M51.5164 21.8624C54.7426 15.7421 53.8278 8.91964 49.473 6.62411C45.1182 4.32858 38.9726 7.42921 35.7464 13.5496C32.5202 19.6699 33.435 26.4924 37.7898 28.7879C42.1445 31.0834 48.2902 27.9828 51.5164 21.8624Z" fill="#69B551"/>
<path opacity="0.2" d="M49.5716 6.68115C51.401 9.86174 51.271 14.7418 48.8976 19.2441C45.6712 25.3645 39.5256 28.4651 35.1709 26.1695C35.1377 26.1521 35.1067 26.1319 35.074 26.114C35.7314 27.257 36.6396 28.1826 37.7907 28.7894C42.1454 31.085 48.2911 27.9843 51.5175 21.864C54.7193 15.7903 53.8411 9.02725 49.5716 6.68115Z" fill="black"/>
<path d="M11.327 17.0095C13.1691 12.3026 9.28196 5.91773 5.93907 7.89363C2.59618 9.86953 6.31513 16.3535 11.327 17.0095Z" fill="#8FE673"/>
<path d="M11.3271 17.0095C9.30127 12.3786 2.03787 10.6126 1.07131 14.3735C0.104744 18.1344 7.31927 20.0897 11.3271 17.0095Z" fill="#76CC5B"/>
<path d="M11.327 17.0095C8.24684 13.0017 10.2022 5.78702 13.963 6.7537C17.7238 7.72038 15.9579 14.9837 11.327 17.0095Z" fill="#76CC5B"/>
<path d="M12.1506 17.5437C12.1763 17.5039 12.1997 17.4626 12.2192 17.4196C12.2223 17.413 12.2247 17.4062 12.2277 17.3996C12.2481 17.3522 12.2658 17.3038 12.2786 17.2539L13.9044 10.9291C14.0394 10.4035 13.723 9.86804 13.1974 9.73304C12.6718 9.59769 12.1364 9.91445 12.0014 10.4399L10.966 14.4679L8.84997 10.8878C8.57399 10.4207 7.97142 10.2658 7.50442 10.5419C7.03732 10.8178 6.88251 11.4204 7.15849 11.8874L9.27466 15.4677L5.24669 14.4324C4.7211 14.297 4.18567 14.6138 4.05067 15.1393C3.91567 15.6648 4.23208 16.2003 4.75767 16.3353L11.0798 17.9603H11.08L11.0826 17.961C11.1082 17.9676 11.1338 17.9712 11.1594 17.9757C11.1742 17.9782 11.1886 17.9822 11.2036 17.9841C11.2043 17.9842 11.205 17.9843 11.2058 17.9844C11.2468 17.9896 11.2875 17.9922 11.328 17.9922C11.3301 17.9922 11.3321 17.9917 11.3342 17.9917C11.3811 17.9915 11.428 17.987 11.475 17.9799C11.4907 17.9775 11.506 17.9737 11.5215 17.9706C11.5545 17.9639 11.5872 17.9559 11.6197 17.9457C11.6365 17.9404 11.653 17.9348 11.6695 17.9287C11.6996 17.9174 11.7293 17.9042 11.7586 17.8898C11.7746 17.8819 11.7908 17.8744 11.8064 17.8656C11.8132 17.8619 11.8202 17.8592 11.8271 17.8552C11.8597 17.836 11.8904 17.8148 11.9198 17.7925C11.9213 17.7913 11.9231 17.7905 11.9246 17.7893C11.9281 17.7866 11.9311 17.7831 11.9345 17.7804C11.9699 17.7527 12.0027 17.7229 12.0334 17.6912C12.0378 17.6867 12.0425 17.6825 12.0468 17.6777C12.0792 17.643 12.1081 17.6058 12.1347 17.5674C12.1401 17.5598 12.1454 17.5519 12.1506 17.5437Z" fill="#599944"/>
<path d="M14.4233 30.2274C18.8818 30.2274 22.4962 26.613 22.4962 22.1545C22.4962 17.6959 18.8818 14.0815 14.4233 14.0815C9.96472 14.0815 6.35034 17.6959 6.35034 22.1545C6.35034 26.613 9.96472 30.2274 14.4233 30.2274Z" fill="#FF704D"/>
<path opacity="0.2" d="M14.4236 14.0818C13.7457 14.0818 13.0879 14.1664 12.4587 14.3239C15.9673 15.2015 18.5664 18.3739 18.5664 22.1544C18.5664 25.9348 15.9673 29.1072 12.4587 29.9848C13.0879 30.1421 13.7457 30.2269 14.4236 30.2269C18.882 30.2269 22.4962 26.6128 22.4962 22.1544C22.4962 17.6961 18.882 14.0818 14.4236 14.0818Z" fill="black"/>
<path d="M21.3096 36.3276C26.4857 36.3276 30.6819 32.1948 30.6819 27.0967C30.6819 21.9986 26.4857 17.8658 21.3096 17.8658C16.1334 17.8658 11.9373 21.9986 11.9373 27.0967C11.9373 32.1948 16.1334 36.3276 21.3096 36.3276Z" fill="#FFC552"/>
<path opacity="0.2" d="M22.2745 17.9136C24.9603 19.537 26.7524 22.4554 26.7524 25.7867C26.7524 30.8853 22.5561 35.0184 17.3797 35.0184C17.0538 35.0184 16.732 35.0019 16.4146 34.9699C17.8393 35.831 19.5152 36.3282 21.3094 36.3282C26.4856 36.3282 30.682 32.1951 30.682 27.0965C30.6821 22.3191 26.9973 18.3895 22.2745 17.9136Z" fill="black"/>
<path d="M32.3454 34.8357C37.6909 34.8357 42.0242 30.5674 42.0242 25.3022C42.0242 20.0371 37.6909 15.7688 32.3454 15.7688C26.9999 15.7688 22.6665 20.0371 22.6665 25.3022C22.6665 30.5674 26.9999 34.8357 32.3454 34.8357Z" fill="#9773BF"/>
<path opacity="0.2" d="M35.6346 16.3348C37.1637 18.0207 38.0944 20.2442 38.0944 22.6827C38.0944 27.9478 33.7609 32.216 28.4154 32.216C27.2603 32.216 26.153 32.0158 25.126 31.6503C26.8984 33.6044 29.4754 34.8357 32.3451 34.8357C37.6907 34.8357 42.0241 30.5675 42.0241 25.3024C42.0241 21.1752 39.3606 17.6612 35.6346 16.3348Z" fill="black"/>
<path d="M57.1552 26.4323C57.1552 24.4696 55.5641 22.8787 53.6016 22.8787C52.9506 22.8787 52.3411 23.0546 51.8164 23.3601C51.3441 21.952 50.0148 20.9369 48.4475 20.9369C47.7966 20.9369 47.1871 21.1127 46.6623 21.4183C46.1899 20.0102 44.8607 18.9951 43.2934 18.9951C41.7261 18.9951 40.3968 20.0102 39.9245 21.4183C39.3997 21.1127 38.7902 20.9369 38.1393 20.9369C36.5721 20.9369 35.2426 21.952 34.7704 23.3601C34.2456 23.0545 33.6361 22.8787 32.9852 22.8787C31.0226 22.8787 29.4316 24.4698 29.4316 26.4323V31.7727H57.1553V26.4323H57.1552Z" fill="#8FE673"/>
<g opacity="0.2">
<path d="M53.6015 22.8789C53.1391 22.8789 52.6985 22.969 52.2935 23.13C53.6067 23.652 54.5354 24.9336 54.5354 26.4326V31.773H57.1552V26.4326C57.1552 24.4697 55.5642 22.8789 53.6015 22.8789Z" fill="black"/>
</g>
<path d="M30.6819 30.4628L5.29736 34.0727V55.1529H56.134V34.0727L30.6819 30.4628Z" fill="#F2AE5D"/>
<path opacity="0.2" d="M5.29736 34.0727V37.9796H56.134V34.0727L30.6819 30.4628L5.29736 34.0727Z" fill="black"/>
<path d="M59.0173 26.8754H2.34692V34.0497H59.0173V26.8754Z" fill="#F2AE5D"/>
<path d="M42.9 3.92529C41.7035 4.52893 40.57 5.33834 39.534 6.3144C38.7592 4.66709 37.5858 3.39912 36.0799 2.60529C33.3417 1.16178 29.9266 1.51744 26.7104 3.58135C26.2537 3.87432 26.1211 4.48205 26.4143 4.93885C26.7075 5.39565 27.315 5.52807 27.7718 5.23498C30.3751 3.56447 33.0691 3.2394 35.1639 4.34354C36.4925 5.04397 37.4876 6.26611 38.063 7.89561C38.0911 7.97529 37.5601 8.54131 37.4991 8.62404C36.8721 9.47494 36.3046 10.4008 35.8322 11.3577C35.7784 11.4668 35.2216 12.7928 35.1937 12.7885C31.9807 12.2927 28.6569 13.2572 26.2559 15.4598C26.2407 15.454 26.2255 15.4489 26.2103 15.4432C25.1787 15.046 24.0848 14.818 22.9808 14.766C22.9693 14.7655 22.9578 14.7642 22.9462 14.7637C22.9447 14.7615 22.943 14.7594 22.9414 14.7572C22.8532 14.6335 22.7617 14.5132 22.668 14.3948C22.6643 14.39 22.6604 14.3852 22.6567 14.3804C22.3624 14.0103 22.0428 13.6667 21.7007 13.3515C21.982 12.5021 22.3386 11.6658 22.7645 10.858C23.4269 9.60139 24.2313 8.45576 25.1557 7.45287C25.5234 7.05397 25.4981 6.43229 25.0991 6.06467C24.7001 5.69682 24.0785 5.72225 23.7109 6.12127C22.6712 7.2492 21.7679 8.53463 21.0262 9.9417C20.649 10.6572 20.3208 11.3937 20.0435 12.1421C19.2128 11.6709 18.3076 11.3327 17.3575 11.1444C18.1923 9.28463 18.3805 7.32092 17.8105 5.86158C17.3739 4.74361 16.5042 3.96619 15.3619 3.67264C15.0545 3.59354 14.745 3.55358 14.4423 3.55358C13.1403 3.55358 11.9776 4.286 11.1607 5.57108C10.3089 4.81604 9.35718 4.41268 8.39027 4.41268C7.76542 4.41268 7.16074 4.58272 6.59332 4.91822C5.13468 5.78037 4.56105 7.38994 4.96945 9.23377C3.06234 9.35143 1.69382 10.3663 1.27417 11.9992C0.989409 13.1071 1.21218 14.1742 1.91847 15.0849C2.90496 16.3571 4.78148 17.1948 6.92531 17.3546C6.66421 18.1991 6.523 19.0958 6.523 20.0249C6.523 21.3307 6.79898 22.5976 7.32972 23.7636H3.50144C2.95886 23.7636 2.51906 24.2035 2.51906 24.746V31.9203C2.51906 32.4629 2.95898 32.9027 3.50144 32.9027H5.43562V53.0003C5.43562 53.5428 5.87554 53.9826 6.418 53.9826H57.2545C57.7972 53.9826 58.2369 53.5427 58.2369 53.0003V32.9026H60.1712C60.7139 32.9026 61.1536 32.4627 61.1536 31.9202V24.7459C61.1536 24.2033 60.7139 23.7635 60.1712 23.7635H59.2588C58.9911 21.5157 57.0745 19.7667 54.7559 19.7667C54.3955 19.7667 54.0384 19.8119 53.6909 19.8958C54.3736 18.5434 54.8828 17.1331 55.201 15.6975C55.3185 15.1679 54.9844 14.6431 54.4547 14.5256C53.9252 14.4085 53.4002 14.7424 53.2828 15.2721C53.0318 16.404 52.6481 17.5204 52.1395 18.6003C52.1286 18.5929 52.1171 18.5867 52.1062 18.5795C51.3746 18.0903 50.4805 17.8255 49.6016 17.825C49.1577 17.825 48.7178 17.8904 48.296 18.0172C47.481 16.7095 46.0385 15.8832 44.4475 15.8832C43.54 15.8832 42.6323 16.1676 41.8832 16.6788C40.6341 15.1051 38.9838 13.9362 37.119 13.2757C37.1 13.269 37.7565 11.9054 37.8203 11.7862C39.9318 7.83467 45.2627 2.77815 50.1704 5.36494C52.2348 6.45326 53.4874 8.81916 53.6072 11.8561C53.6285 12.3983 54.0846 12.8202 54.6277 12.799C55.1699 12.7775 55.5919 12.3207 55.5705 11.7785C55.4223 8.02205 53.788 5.051 51.0867 3.62682C48.692 2.36401 45.7846 2.47018 42.9 3.92529ZM22.4242 16.7188C22.4374 16.7188 22.4505 16.7178 22.4635 16.7178C23.2234 16.7178 23.9729 16.8162 24.706 17.0161C24.7317 17.023 24.7575 17.0297 24.7832 17.0369C24.7996 17.0415 24.8155 17.0472 24.8319 17.0521C24.1662 17.9661 23.6591 18.9735 23.3224 20.0376C23.3182 20.0508 23.3144 20.064 23.3103 20.0772C22.9597 21.2006 22.8018 22.3819 22.8465 23.5578C22.8478 23.5909 22.8492 23.6237 22.8509 23.6567C22.8526 23.6924 22.8534 23.728 22.8555 23.7637H14.1674C14.1729 23.7262 14.1778 23.6885 14.1839 23.6512C14.4646 21.9226 15.3232 20.306 16.5798 19.089C18.1472 17.5712 20.2216 16.7296 22.4242 16.7188ZM19.9384 14.4324C19.9465 14.4392 19.9535 14.4473 19.9618 14.4539C20.1535 14.6051 20.3355 14.7663 20.5098 14.9351C17.5094 15.4992 14.8506 17.4117 13.3684 20.0829C12.77 21.161 12.3695 22.378 12.204 23.6123C12.1982 23.6565 12.1908 23.7002 12.1854 23.7445C12.1846 23.751 12.1834 23.7572 12.1828 23.7636H9.55488C8.8555 22.6418 8.48812 21.359 8.48812 20.0249C8.48812 17.5824 9.79722 15.2597 11.8747 13.9817C11.8854 13.9752 11.8956 13.9681 11.9061 13.9617C14.3239 12.5011 17.7265 12.5693 19.9384 14.4324ZM3.47132 13.8808C3.14179 13.4559 3.04558 13.0003 3.17707 12.4883C3.45351 11.413 4.5096 11.1872 5.34703 11.1872C5.623 11.1872 5.9155 11.2128 6.21632 11.2635C6.57785 11.3243 6.94406 11.1781 7.1646 10.8847C7.38503 10.5912 7.42359 10.1994 7.26445 9.86858C6.99515 9.30889 6.22277 7.41971 7.59339 6.60971C7.85777 6.45362 8.11839 6.37756 8.39062 6.37756C9.11425 6.37756 9.92238 6.92904 10.6078 7.89045C10.8209 8.1894 11.183 8.34467 11.546 8.29287C11.9093 8.24131 12.2136 7.99147 12.3349 7.64518C12.8016 6.31358 13.5894 5.51858 14.4425 5.51858C14.5803 5.51858 14.7252 5.53779 14.873 5.57576C15.4091 5.71358 15.7713 6.04088 15.9806 6.57666C16.4113 7.6794 16.1073 9.43123 15.2459 10.976C15.2182 10.9771 15.1909 10.9793 15.1632 10.9806C14.9361 10.9908 14.7093 11.0099 14.4837 11.0372L15.0587 8.79959C15.1937 8.27401 14.8773 7.73858 14.3518 7.60358C13.8261 7.46834 13.2908 7.78498 13.1558 8.31045L12.3152 11.5808C12.3084 11.5834 12.3018 11.5862 12.295 11.5888C12.1285 11.6537 11.9631 11.7226 11.8009 11.7975L10.0043 8.75787C9.72832 8.29088 9.12585 8.13584 8.65874 8.41205C8.19164 8.68803 8.03683 9.29061 8.31281 9.75772L10.1148 12.8065C9.96996 12.9162 9.82863 13.0298 9.69081 13.1481L6.40113 12.3026C5.87531 12.1673 5.34011 12.484 5.20511 13.0094C5.07011 13.535 5.38652 14.0705 5.91199 14.2055L8.19175 14.7914C8.06847 14.9651 7.95152 15.1433 7.84066 15.3256C7.83832 15.3294 7.83597 15.3333 7.83363 15.337C7.8171 15.3644 7.79953 15.3912 7.78335 15.4186C5.94011 15.4466 4.19941 14.8197 3.47132 13.8808ZM59.1889 25.7283V30.9377H14.6098C14.0672 30.9377 13.6274 31.3776 13.6274 31.9201C13.6274 32.4627 14.0673 32.9025 14.6098 32.9025H56.2721V41.4677C54.6949 41.4548 53.0952 41.4581 51.592 41.4777C51.0494 41.4847 50.6155 41.9304 50.6227 42.473C50.6297 43.0111 51.068 43.4426 51.6047 43.4426C51.609 43.4426 51.6134 43.4426 51.6179 43.4426C53.1125 43.4229 54.7037 43.4199 56.2723 43.4327V52.0179H7.4005V43.441C20.8657 43.4189 34.0027 43.4195 47.5252 43.4426C47.5256 43.4426 47.5263 43.4426 47.5269 43.4426C48.0688 43.4426 48.5085 43.0037 48.5093 42.4618C48.5102 41.9192 48.0711 41.4787 47.5285 41.4777C34.0051 41.4545 20.8668 41.454 7.40062 41.4762V32.9026H10.9424C11.485 32.9026 11.9248 32.4627 11.9248 31.9202C11.9248 31.3778 11.4848 30.9378 10.9424 30.9378H6.418H4.48382V25.7284L59.1889 25.7283ZM41.4248 20.2081C42.0411 19.9761 42.0901 19.2347 42.4757 18.7728C43.7437 17.254 46.2579 17.731 46.8852 19.6011C46.897 19.636 46.9106 19.6703 46.926 19.7034C47.0338 19.9351 47.2287 20.1172 47.4707 20.2083C48.0279 20.4181 48.5658 19.9462 49.0972 19.8398C50.0481 19.6494 51.0493 20.0298 51.6388 20.7965C51.6482 20.8087 51.6589 20.8195 51.6688 20.8312C52.0373 21.2662 52.0249 21.9244 52.6246 22.1499C52.9008 22.2538 53.2096 22.2281 53.4649 22.0795C53.8557 21.8518 54.3023 21.7316 54.7559 21.7316C55.9888 21.7316 57.0217 22.6038 57.2701 23.7635H31.626C31.6645 23.5836 31.7223 23.4125 31.7982 23.2453C32.4157 21.8849 34.1378 21.3269 35.4301 22.0794C35.6821 22.226 35.998 22.2525 36.2705 22.1499C36.547 22.0459 36.7621 21.823 36.8559 21.5429C37.2076 20.4943 38.1873 19.7898 39.2934 19.7898C40.0083 19.7897 40.7272 20.4709 41.4248 20.2081ZM40.3883 17.9592C40.3685 17.9543 40.3482 17.9508 40.3283 17.9461C39.9895 17.8667 39.6415 17.8248 39.2934 17.8248C37.7024 17.8248 36.2599 18.651 35.445 19.9587C35.0234 19.832 34.5833 19.7666 34.1395 19.7666C31.9636 19.7666 30.0035 21.4383 29.6607 23.5849C29.6514 23.6441 29.6425 23.7038 29.6352 23.7633H24.8259C24.6339 23.7626 24.975 21.7739 25.0039 21.6069C25.838 16.7798 30.9033 13.7318 35.5929 14.8722C37.4707 15.3292 39.1964 16.4447 40.3883 17.9592Z" fill="black"/>
</g>
<defs>
<clipPath id="clip0_132_105">
<rect width="60" height="60" fill="white"/>
</clipPath>
</defs>
</svg>
